<?xml version="1.0" encoding="utf-8"?><svg xmlns="http://www.w3.org/2000/svg" xmlns:xlink="http://www.w3.org/1999/xlink"><symbol viewBox="0 0 18 18" id="airplane-icon" xmlns="http://www.w3.org/2000/svg"><path d="M14.3 17.6l1.6-1.6-2.4-9.3 3.8-3.8c.7-.7.8-1.8.2-2.4-.6-.6-1.7-.5-2.4.2l-3.8 3.8L2 2 .4 3.7l7.3 4.4L4 11.7 1.1 11 0 12.1l3.7 2.2L5.9 18 7 16.9 6.3 14l3.7-3.7 4.3 7.3z"/></symbol><symbol viewBox="0 0 9.1 5.6" id="arrow-horizontal-icon" xmlns="http://www.w3.org/2000/svg"><path fill="none" d="M.5.5l4 4 4-4"/></symbol><symbol viewBox="0 0 9.1 15.4" id="arrow-vertical-icon" xmlns="http://www.w3.org/2000/svg"><path fill="none" d="M.7 14.7l7-7-7-7"/></symbol><symbol viewBox="0 0 13.2 15.8" id="bag-icon" xmlns="http://www.w3.org/2000/svg"><path d="M11.6 15.8h-10C.7 15.8 0 15 0 14.2v-9c0-.9.7-1.6 1.6-1.6h10c.9 0 1.6.7 1.6 1.6v9c0 .8-.7 1.6-1.6 1.6zm-10-11c-.2 0-.4.2-.4.4v9c0 .2.2.4.4.4h10c.2 0 .4-.2.4-.4v-9c0-.2-.2-.4-.4-.4h-10z"/><path d="M10.2 5.7H9V3.6c0-1.3-1.1-2.4-2.4-2.4S4.2 2.3 4.2 3.6v2.1H3V3.6C3 1.6 4.6 0 6.6 0s3.6 1.6 3.6 3.6v2.1z"/></symbol><symbol viewBox="0 0 233.6 32" preserveAspectRatio="none" id="bg-history-progress" xmlns="http://www.w3.org/2000/svg"><path stroke="transparent" d="M0 31.5L117 .9l116.6 30.6v.5H0z"/><path fill="none" d="M233.4 31.5L116.9.5h-.2L.1 31.5"/></symbol><symbol viewBox="0 0 22.5 22.5" id="bold-pointer-angle-icon" xmlns="http://www.w3.org/2000/svg"><path fill="none" d="M1.4 21.1L20.5 2m0 0H5.9m14.6-2v16.6"/></symbol><symbol viewBox="0 0 12.9 13" id="brassy-icon" xmlns="http://www.w3.org/2000/svg"><path fill-rule="evenodd" clip-rule="evenodd" d="M7.7 9.9L12.9 1l-1.7-1-5.7 9.9h-5c-.3 0-.6.3-.5.7l.6 1.8c.2.3.6.6 1 .6h4.1c.4 0 .8-.2.9-.6l1.1-2.5z"/></symbol><symbol viewBox="0 0 10.9 10.9" id="btn-pointer-icon" xmlns="http://www.w3.org/2000/svg"><path fill="none" d="M.7 10.2L9.9 1m1 0H3m6.9-1v7.9"/></symbol><symbol viewBox="0 0 16 15.9" id="calendar-icon" xmlns="http://www.w3.org/2000/svg"><g fill="none"><path d="M15.3 7.7H.8V2.6c0-.1.1-.3.3-.3h14c.1 0 .3.1.3.3v5.1zm0 0v7.2c0 .1-.1.3-.3.3H1c-.1 0-.3-.1-.3-.3V7.7h14.6zM4.2.8v3.4M11.8.8v3.4"/></g></symbol><symbol viewBox="0 0 19.2 34.1" id="carousel-arrow-icon" xmlns="http://www.w3.org/2000/svg"><path fill="none" d="M1.1 1.1l16 16-16 16"/></symbol><symbol viewBox="0 0 15.5 15.5" id="chart-icon" xmlns="http://www.w3.org/2000/svg"><path fill-rule="evenodd" clip-rule="evenodd" d="M0 15.5V0h3.5v15.5H0zm6 0V4.8h3.5v10.7H6zm6-11.9v11.9h3.5V3.6H12z"/></symbol><symbol viewBox="0 0 16 16" id="clock-icon" xmlns="http://www.w3.org/2000/svg"><path fill-rule="evenodd" clip-rule="evenodd" d="M8 16c4.4 0 8-3.6 8-8s-3.6-8-8-8-8 3.6-8 8 3.6 8 8 8zM7.3 4v4.5l.4.2 4 2 .7-1.3-3.6-1.9V4H7.3z"/></symbol><symbol viewBox="0 0 49 62" id="doc-icon" xmlns="http://www.w3.org/2000/svg"><path fill-rule="evenodd" clip-rule="evenodd" d="M36.6 2H2v58h45V13.8L36.6 2zm.9-2H0v62h49V13L37.5 0zm-8 9H8V7h21.5v2zM21 15H8v-2h13v2zM8 21h19v-2H8v2zm3.1 23c.9 0 1.7.2 2.2.7.5.5.8 1.2.8 2.1v.3c0 .9-.3 1.6-.8 2.1s-1.2.8-2.2.8H9.7v3.9H8V44h3.1zm-.1 4.4c.4 0 .8-.1 1-.3.2-.2.3-.5.3-1v-.3c0-.8-.4-1.2-1.3-1.2H9.7v2.8H11zm7.2-4.4c1 0 1.8.3 2.3.8.6.5.8 1.3.8 2.2v3.9c0 .9-.3 1.7-.8 2.2-.6.5-1.3.8-2.3.8h-2.8V44h2.8zm.1 8.3c.4 0 .8-.1 1-.4.2-.3.4-.6.4-1.1v-3.7c0-.5-.1-.8-.4-1.1-.2-.3-.6-.4-1-.4h-1.1v6.7h1.1zm6.4-6.7h3.5V44H23v9.8h1.7V50H28v-1.6h-3.3v-2.8z"/></symbol><symbol viewBox="0 0 22 15" id="en-lang-icon" xmlns="http://www.w3.org/2000/svg"><path fill="#012169" d="M0 0h22v15H0V0z"/><path fill="#FFF" d="M2.6 0L11 5.7 19.3 0H22v1.9l-8.3 5.6 8.3 5.6V15h-2.8L11 9.4 2.8 15H0v-1.9l8.2-5.6L0 2V0h2.6z"/><path fill="#C8102E" d="M14.6 8.8l7.4 5V15l-9.3-6.2h1.9zm-6.3.6l.2 1.1L1.9 15H0l8.3-5.6zM22 0l-8.6 6 .1-1.4L20.3 0H22zM0 0l8.2 5.5h-2L0 1.3V0z"/><path fill="#FFF" d="M8.3 0v15h5.5V0H8.3zM0 5v5h22V5H0z"/><path fill="#C8102E" d="M0 6v3h22V6H0zm9.4-6v15h3.3V0H9.4z"/></symbol><symbol viewBox="0 0 9 22" id="facebook-icon" xmlns="http://www.w3.org/2000/svg"><path d="M8.6 11H6v11H2V11H0V7.1h1.9V4.6C1.9 2.8 2.7 0 6 0h3v3.8H6.8c-.3 0-.8.2-.8 1v2.3h3L8.6 11z"/></symbol><symbol viewBox="0 0 28 23.5" id="hand-icon" xmlns="http://www.w3.org/2000/svg"><path d="M8.8 21.8h.9c1.7 0 5.2 1.7 7 1.7h7c.5 0 .9-.2 1.2-.5.3-.3.5-.8.5-1.2 0-.5-.2-.9-.5-1.2-.3-.3-.8-.5-1.2-.5h.9c.5 0 .9-.2 1.2-.5.3-.3.5-.8.5-1.2 0-.5-.2-.9-.5-1.2-.3-.3-.8-.5-1.2-.5h.9c.5 0 .9-.2 1.2-.5.3-.3.5-.8.5-1.2 0-.5-.2-.9-.5-1.2s-.8-.5-1.2-.5L8.8 11.2v10.6zm16.1-8.6l1.4-.1c.5 0 .9-.2 1.2-.5.3-.3.5-.8.5-1.2 0-.5-.2-.9-.5-1.2s-.8-.5-1.2-.5h-8.7c.6-2.6.9-5.2.9-7.8 0-.5-.2-.9-.5-1.2-.4-.5-.9-.7-1.3-.7-.5 0-.9.2-1.2.5s-.5.8-.5 1.2c0 0-.8 8.8-6.1 9.6M0 7.8l7 .9v13.9H0V7.8z"/></symbol><symbol viewBox="0 0 24.9 9.1" id="hockey-stick-icon" xmlns="http://www.w3.org/2000/svg"><path d="M17.8 6H0v3H15.3l5.1.1 4.5-5.4L22.8 0z"/></symbol><symbol viewBox="0 0 21.7 18.3" id="home-icon" xmlns="http://www.w3.org/2000/svg"><path d="M17.8 7.1V2h-3v2l-3.9-4L0 11.1h2.6v7.2h6.7v-5.9h3v5.9H19v-7.2h2.6l-3.8-4z"/></symbol><symbol viewBox="0 0 19.8 19.8" id="instagram-icon" xmlns="http://www.w3.org/2000/svg"><path fill-rule="evenodd" clip-rule="evenodd" d="M5.9 0h8c3.3 0 5.9 2.7 5.9 5.9v8c0 3.3-2.7 5.9-5.9 5.9h-8c-3.3 0-5.9-2.7-5.9-5.9v-8C0 2.7 2.7 0 5.9 0zm8 17.9c2.2 0 3.9-1.8 3.9-3.9V6c0-2.2-1.8-3.9-3.9-3.9h-8C3.8 2 2 3.8 2 5.9v8c0 2.2 1.8 3.9 3.9 3.9h8z"/><path fill-rule="evenodd" clip-rule="evenodd" d="M4.8 9.9c0-2.8 2.3-5.1 5.1-5.1S15 7.1 15 9.9 12.7 15 9.9 15c-2.8.1-5.1-2.2-5.1-5.1zm2 0c0 1.7 1.4 3.1 3.1 3.1 1.7 0 3.1-1.4 3.1-3.1 0-1.7-1.4-3.1-3.1-3.1-1.7 0-3.1 1.4-3.1 3.1z"/><path d="M15.1 6.1c.7 0 1.2-.6 1.2-1.2s-.6-1.2-1.2-1.2c-.7 0-1.2.6-1.2 1.2s.5 1.2 1.2 1.2z"/></symbol><symbol viewBox="0 0 31.7 15.4" id="long-pointer-icon" xmlns="http://www.w3.org/2000/svg"><path fill="none" d="M7.7 14.7l-7-7m0 0l7-7m-7 7h31"/></symbol><symbol viewBox="0 0 12.7 21.5" id="ok-icon" xmlns="http://www.w3.org/2000/svg"><path d="M5.3 15.4c-1.6-.2-3.1-.6-4.4-1.5-.2-.1-.3-.2-.5-.4-.6-.5-.6-1.1-.2-1.7.4-.5 1-.7 1.7-.4.1.1.2.1.4.2 2.4 1.6 5.6 1.6 7.9.1.2-.2.5-.3.8-.4.6-.1 1.1.1 1.4.5.3.6.3 1.1-.1 1.5-.7.7-1.4 1.1-2.3 1.5-.8.3-1.7.5-2.6.6l.3.3 3.6 3.6c.4.4.5.9.3 1.4-.2.5-.8.9-1.3.8-.3 0-.6-.2-.9-.4l-2.7-2.7c-.3-.3-.4-.2-.6 0-.9.9-1.9 1.8-2.8 2.8-.4.4-.9.5-1.4.2-.6-.2-.9-.8-.9-1.3 0-.4.2-.6.4-.9C2.6 18 3.8 16.8 5 15.7c.1-.1.2-.1.3-.3z"/><path fill-rule="evenodd" clip-rule="evenodd" d="M1 5.6c0 3.1 2.4 5.6 5.3 5.7 3 0 5.4-2.5 5.4-5.6C11.7 2.6 9.3 0 6.4 0 3.4 0 1 2.5 1 5.6zm5.3-2.7c1.5 0 2.6 1.2 2.6 2.8 0 1.5-1.2 2.8-2.6 2.8-1.5 0-2.6-1.2-2.6-2.7 0-1.7 1.2-2.9 2.6-2.9z"/></symbol><symbol viewBox="0 0 19 19" id="pencil-icon" xmlns="http://www.w3.org/2000/svg"><path d="M18.8 3.5c-.4-.6-.9-1.2-1.4-1.8-.6-.6-1.2-1.1-1.8-1.4-.6-.4-1.3-.3-1.8.2L2.2 11.9c-.1.1-.1.1-.1.2l-2 5.7c-.1.3 0 .7.2.9.1.2.3.3.6.3h.3l5.7-2c.1 0 .1-.1.2-.1L18.6 5.3c.5-.5.5-1.3.2-1.8zM3 12.9c.6.3 1.2.8 1.7 1.4.6.6 1 1.2 1.4 1.7l-3.3 1.2c-.1-.2-.2-.4-.4-.6-.2-.2-.4-.3-.6-.4L3 12.9z"/></symbol><symbol viewBox="0 0 5.9 5.9" id="pointer-angle-icon" xmlns="http://www.w3.org/2000/svg"><path fill="none" d="M.4 5.6L5.3.7m0-.1L1.2.5m4.1.1l.1 4.1"/></symbol><symbol viewBox="0 0 10.5 9" id="pointer-horizontal-icon" xmlns="http://www.w3.org/2000/svg"><path fill="none" d="M0 4.5h10m0 0l-4-4m4 4l-4 4"/></symbol><symbol viewBox="0 0 19 18.1" id="present-icon" xmlns="http://www.w3.org/2000/svg"><path d="M17.1 10.5v6.7c0 .3-.1.5-.3.7-.2.2-.4.3-.7.3H2.9c-.3 0-.5-.1-.7-.3-.2-.2-.3-.4-.3-.7v-6.6l15.2-.1zM11.9 0c1.1 0 2.2.6 2.8 1.5.6 1 .7 2.2.2 3.2h3.2c.3 0 .5.1.7.3.1.2.2.5.2.7v2.9c0 .3-.1.5-.3.7-.2.2-.4.3-.7.3H.9c-.3 0-.5-.1-.7-.3C.1 9 0 8.8 0 8.6V5.7c0-.2.1-.5.3-.7.2-.2.4-.3.7-.3h3.2c-.5-1-.4-2.1.1-3C4.7.8 5.6.2 6.7 0c1-.1 2.1.2 2.8 1 .6-.6 1.5-1 2.4-1zM7.1 1.9c-.5 0-1 .3-1.2.7-.2.4-.3.9-.1 1.4.3.4.7.7 1.2.7h1.5V3.3c0-.4-.1-.7-.4-1-.2-.2-.5-.4-.8-.4h-.2zm4.8 0h-.1c-.3 0-.6.2-.9.4-.2.2-.4.5-.4.9v1.5H12c.5 0 .9-.3 1.1-.7.2-.4.2-.9 0-1.3-.2-.5-.6-.7-1.1-.8h-.1z"/></symbol><symbol viewBox="0 0 22 15" id="ru-lang-icon" xmlns="http://www.w3.org/2000/svg"><g fill-rule="evenodd" clip-rule="evenodd"><path fill="#FFF" d="M0 0h22v15H0V0z"/><path fill="#0039A6" d="M0 5h22v10H0V5z"/><path fill="#D52B1E" d="M0 10h22v5H0v-5z"/></g></symbol><symbol viewBox="0 0 19.8 18.5" id="send-icon" xmlns="http://www.w3.org/2000/svg"><path d="M0 8l7.5 3L18.3 0 0 8zm8.9 3.6l7.9 4.9 3.1-16-11 11.1zM8.2 18.5l2.8-4-2.8-1.7v5.7z"/></symbol><symbol viewBox="0 0 21.5 21.5" id="telegram-icon" xmlns="http://www.w3.org/2000/svg"><path fill-rule="evenodd" clip-rule="evenodd" d="M21.5 10.8c0 5.9-4.8 10.8-10.8 10.8S0 16.7 0 10.8 4.8 0 10.8 0s10.7 4.8 10.7 10.8zM11.2 7.9c-1 .4-3.1 1.3-6.3 2.7-.5.2-.8.4-.8.6 0 .3.4.5.9.6.1 0 .2 0 .2.1.5.2 1.3.4 1.7.4.3 0 .7-.1 1.2-.4 2.9-2 4.4-3 4.5-3h.2c.1.1.1.2.1.2 0 .2-1.7 1.7-2.5 2.4-.3.3-.4.5-.5.5l-.3.3c-.5.5-.9.9 0 1.5.4.3.8.5 1.1.8.4.3.8.5 1.3.8.1.1.2.2.4.3.4.3.8.6 1.3.6.3 0 .6-.3.7-1.1.4-1.9 1.1-6 1.2-7.7v-.4c0-.1 0-.2-.2-.3-.1-.1-.3-.1-.4-.1-.2-.2-.9 0-3.8 1.2z"/></symbol><symbol viewBox="0 0 20.5 20.5" id="ticket-icon" xmlns="http://www.w3.org/2000/svg"><path d="M8.3 20.5c-.2 0-.4-.1-.5-.2l-2.2-2.2c-.3-.3-.3-.7-.1-1 .2-.3.3-.6.3-1s-.2-.7-.4-.9c-.3-.3-.6-.4-.9-.4-.3 0-.7.1-1 .3-.3.2-.7.2-1-.1L.3 12.8c-.3-.3-.3-.8 0-1.1L11.7.2c.3-.3.8-.3 1.1 0L15 2.4c.3.3.3.7.1 1-.2.3-.3.6-.3 1s.2.7.4.9c.3.3.6.4.9.4.4 0 .7-.1 1-.3.3-.2.7-.2 1 .1l2.2 2.2c.3.3.3.8 0 1.1L8.8 20.3c-.2.1-.4.2-.5.2zM7 17.4l1.3 1.3L18.7 8.3 17.4 7c-.4.2-.9.3-1.4.3-.7 0-1.4-.3-1.9-.9-.5-.5-.8-1.2-.9-1.9 0-.5.1-1 .3-1.4l-1.3-1.3L1.8 12.2l1.3 1.3c.4-.2.9-.3 1.4-.3.7 0 1.4.3 1.9.9.5.5.8 1.2.9 1.9 0 .5-.1 1-.3 1.4z"/><path d="M9.6 16.5c-.2 0-.4-.1-.5-.2l-.4-.4c-.3-.3-.3-.8 0-1.1.3-.3.8-.3 1.1 0l.4.4c.3.3.3.8 0 1.1-.2.1-.4.2-.6.2zm-1.8-1.7c-.2 0-.4-.1-.5-.2l-.4-.4c-.1-.1-.2-.3-.2-.5s.1-.4.2-.5c.3-.3.8-.3 1.1 0l.4.4c.1.1.2.3.2.5s-.1.4-.2.5-.4.2-.6.2zM6 13c-.2 0-.4-.1-.5-.2l-.4-.4c-.1-.1-.2-.3-.2-.5s.1-.4.2-.5c.3-.3.8-.3 1.1 0l.4.4c.1.1.2.3.2.5s-.1.4-.2.5-.4.2-.6.2zm10.6-1.8c-.2 0-.4-.1-.5-.2l-.4-.4c-.1-.1-.2-.3-.2-.5s.1-.4.2-.5c.3-.3.8-.3 1.1 0l.4.4c.1.1.2.3.2.5s-.1.4-.2.5-.4.2-.6.2zm-12.3 0c-.2 0-.4-.1-.5-.2l-.4-.4c-.1-.1-.2-.3-.2-.5s.1-.4.2-.5c.3-.3.8-.3 1.1 0l.4.4c.1.1.1.3.1.5s0 .4-.2.5-.3.2-.5.2zm10.6-1.8c-.2 0-.4-.1-.5-.2l-.4-.4c-.1-.1-.2-.3-.2-.5s.1-.4.2-.5c.3-.3.8-.3 1.1 0l.4.4c.1.1.2.3.2.5s-.1.4-.2.5-.4.2-.6.2zm-1.8-1.7c-.2 0-.4-.1-.5-.2l-.4-.5c-.1-.1-.2-.3-.2-.5s0-.4.2-.5c.3-.3.8-.3 1.1 0l.4.4c.1.1.2.3.2.5s-.1.4-.2.5c-.2.2-.4.3-.6.3zm-1.7-1.8c-.2 0-.4-.1-.5-.2l-.4-.4c-.1-.1-.2-.3-.2-.5s.1-.4.2-.5c.3-.3.8-.3 1.1 0l.4.4c0 .1.1.3.1.5s-.1.4-.2.5c-.2.2-.3.2-.5.2z"/></symbol><symbol viewBox="0 0 17.9 21.3" id="tik-tok-icon" xmlns="http://www.w3.org/2000/svg"><path d="M13.2 0H9.7v14.5c0 1.7-1.4 3.2-3.1 3.2-1.7 0-3.1-1.4-3.1-3.2 0-1.7 1.3-3.1 3-3.2V7.7C2.9 7.8 0 10.8 0 14.5c0 3.8 3 6.8 6.6 6.8 3.7 0 6.6-3.1 6.6-6.8V7.1c1.3 1 3 1.6 4.7 1.6V5c-2.6-.1-4.7-2.3-4.7-5z"/></symbol><symbol viewBox="0 0 19.3 15.3" id="twitter-icon" xmlns="http://www.w3.org/2000/svg"><path d="M19.3 1.8c-.7.3-1.5.5-2.3.6.8-.5 1.4-1.2 1.7-2.1-.7.4-1.6.7-2.5.9C15.5.5 14.5 0 13.3 0c-2.2 0-4 1.7-4 3.9 0 .3 0 .6.1.9C6.2 4.6 3.3 3 1.3.7 1 1.3.8 1.9.8 2.6c0 1.3.7 2.5 1.8 3.2-.6 0-1.3-.2-1.8-.5C.8 7.2 2.2 8.7 4 9.1c-.3.1-.7.1-1 .1-.3 0-.5 0-.7-.1.5 1.5 2 2.7 3.7 2.7-1.4 1-3.1 1.7-4.9 1.7-.3 0-.6 0-.9-.1 1.7 1.1 3.8 1.7 6.1 1.7 7.3 0 11.2-5.9 11.2-11v-.5c.6-.3 1.2-1 1.8-1.8z"/></symbol><symbol viewBox="0 0 7.3 10.2" id="user-icon" xmlns="http://www.w3.org/2000/svg"><path fill-rule="evenodd" clip-rule="evenodd" d="M3.6 4.4c1.2 0 2.2-1 2.2-2.2C5.8 1 4.8 0 3.6 0 2.4 0 1.5 1 1.5 2.2c0 1.2.9 2.2 2.1 2.2zM0 10.2c0-2.7 1.6-4.4 3.6-4.4s3.6 1.6 3.6 4.4H0z"/></symbol><symbol viewBox="0 0 26 18" id="view-line-icon" xmlns="http://www.w3.org/2000/svg"><path fill-rule="evenodd" clip-rule="evenodd" d="M26 0H0v4h26V0zm0 7H0v4h26V7zM0 14h26v4H0v-4z"/></symbol><symbol viewBox="0 0 26 18" id="view-table-icon" xmlns="http://www.w3.org/2000/svg"><path d="M0 0h7.3v4H0V0zM0 7h7.3v4H0V7zM7.3 14H0v4h7.3v-4zM9.4 0h7.3v4H9.4V0zM16.6 7H9.4v4h7.3V7zM9.4 14h7.3v4H9.4v-4zM26 0h-7.3v4H26V0zM18.7 7H26v4h-7.3V7zM26 14h-7.3v4H26v-4z"/></symbol><symbol viewBox="0 0 23 12.4" id="vk-icon" xmlns="http://www.w3.org/2000/svg"><path fill-rule="evenodd" clip-rule="evenodd" d="M11.3 12.4h1.4s.4 0 .6-.3c.2-.2.2-.6.2-.6s0-1.7.8-2c.8-.3 1.9 1.7 3.1 2.4.9.6 1.5.4 1.5.4H22s1.6-.1.8-1.3c-.1-.1-.4-.9-2.3-2.5-1.9-1.7-1.7-1.4.7-4.3 1.4-1.8 2-2.9 1.8-3.3-.2-.4-1.2-.3-1.2-.3h-3.5s-.3 0-.4.1c-.2.1-.4.3-.4.3s-.5 1.4-1.2 2.6C14.7 6 14.1 6.2 13.9 6c-.6-.4-.4-1.4-.4-2.2 0-2.4.4-3.4-.7-3.7-.5 0-.8-.1-1.7-.1-1.3 0-2.3 0-2.9.3-.4.2-.7.6-.5.6.2 0 .7.1 1 .5.4.4.3 1.5.3 1.5s.2 2.8-.4 3.1c-.5.3-1.1-.2-2.5-2.5-.7-1.1-1.2-2.4-1.2-2.4S4.8.9 4.6.8C4.3.6 4 .5 4 .5H.7S.2.5 0 .7c-.2.2 0 .6 0 .6S2.6 7 5.5 9.9c2.7 2.6 5.8 2.5 5.8 2.5z"/></symbol><symbol viewBox="0 0 21.2 21.2" id="washer-icon" xmlns="http://www.w3.org/2000/svg"><path fill-rule="evenodd" clip-rule="evenodd" d="M14.8 6.5c-2.2-2.2-4.4-4-6.3-5.2C7.6.7 6.8.3 6.1.1c-.4-.1-.7-.1-1-.1-.3 0-.6.1-.8.3l-.1.1L.4 4.2c-.3.3-.4.6-.4.9 0 .3 0 .6.1 1 .2.7.6 1.5 1.2 2.4 1.1 1.8 2.9 4.1 5.2 6.3 2.2 2.2 4.4 4 6.3 5.1.9.6 1.7 1 2.4 1.2.4.1.7.2 1 .1.3 0 .6-.1.8-.3h.1l3.8-3.8.1-.1c.2-.2.3-.5.3-.8 0-.3 0-.7-.1-1-.2-.7-.6-1.5-1.2-2.4-1.2-1.9-3-4.1-5.2-6.3zm-.8.7c2.2 2.2 3.9 4.3 5 6.1.5.9.9 1.6 1.1 2.2.1.3.1.5.1.6 0 .1 0 .2-.1.2 0 0-.1 0-.2.1-.1 0-.4 0-.6-.1-.5-.2-1.3-.5-2.2-1.1-1.7-1.1-3.9-2.8-6.1-5-2-2-3.6-3.9-4.7-5.6-.5-.8-.9-1.5-1.1-2.1-.3-.6-.3-1.1-.3-1.2v-.1s.1-.1.2-.1.4 0 .6.1c.5.2 1.3.5 2.2 1 1.8 1.1 4 2.8 6.1 5z"/></symbol><symbol viewBox="0 0 25 20.6" id="whistle-icon" xmlns="http://www.w3.org/2000/svg"><path d="M8.7 2.1c-.2-.3-.5-.4-.8-.2-.2.2-.3.5-.1.8L9.4 5c.2.3.5.3.8.2.3-.2.3-.5.2-.8L8.7 2.1zM14.2.6c-.2 0-.6.2-.6.4l-.5 2.7c-.1.3.2.6.4.7.3.1.6-.2.6-.4l.5-2.7c.1-.4-.1-.6-.4-.7zM11.5.4c-.1-.3-.4-.4-.7-.4-.3.1-.5.3-.4.6l.6 2.8c.1.3.4.5.6.4.3-.1.5-.3.4-.6L11.5.4zM25 8.2l-.9-4.1c-.1-.3-.4-.5-.6-.4L8.7 6.8c-3 .8-5 3.4-5.2 6.3-.5-.3-1.1-.4-1.7-.3-1.2.3-2.1 1.5-1.8 2.8.3 1.2 1.5 2.1 2.8 1.8.5-.1 1-.4 1.4-.9 1.5 2.9 4.8 4.5 8.1 3.7 3.9-1 6.1-5.2 5-8.5-.1-.6.2-1.2.9-1.4l6.4-1.7c.3.2.4-.1.4-.4zM2.6 16.5c-.7.2-1.4-.3-1.6-1-.2-.6.3-1.4 1-1.6.8-.2 1.4.4 1.6 1 .2.7-.2 1.4-1 1.6zm8 1.1c-1.9 0-3.6-1.4-4-3.2-.5-2.5 1.4-4.9 4-4.9 1.9 0 3.6 1.4 3.9 3.2.6 2.6-1.3 4.9-3.9 4.9zm.1-7c-1.9 0-3.3 1.7-2.9 3.6.3 1.4 1.5 2.4 2.9 2.4 1.9 0 3.3-1.7 2.9-3.6-.3-1.4-1.6-2.4-2.9-2.4z"/></symbol><symbol viewBox="0 0 24.7 16.9" id="youtube-icon" xmlns="http://www.w3.org/2000/svg"><path d="M24.5 3.6s-.2-1.7-1-2.4c-.9-1-2-1-2.5-1-3.4-.2-8.6-.2-8.6-.2S7.2 0 3.8.2c-.5.1-1.5.1-2.5 1-.7.7-1 2.4-1 2.4S0 5.6 0 7.5v1.8c0 1.9.2 3.9.2 3.9s.2 1.7 1 2.4c.9 1 2.2.9 2.7 1 2 .2 8.4.2 8.4.2s5.2 0 8.7-.2c.5-.1 1.5-.1 2.5-1 .7-.7 1-2.4 1-2.4s.2-1.9.2-3.9V7.5c0-1.9-.2-3.9-.2-3.9zM9.8 11.5V4.8l6.7 3.4-6.7 3.3z"/></symbol></svg>