<svg version="1.1" id="Слой_1" xmlns="http://www.w3.org/2000/svg" xmlns:xlink="http://www.w3.org/1999/xlink" x="0" y="0" viewBox="0 0 722 640" xml:space="preserve"><defs><path id="SVGID_1_" d="M0 0h722v640H0z"/></defs><clipPath id="SVGID_2_"><use xlink:href="#SVGID_1_" overflow="visible"/></clipPath><g clip-path="url(#SVGID_2_)"><path fill="#F4F6FA" d="M240 640c-84 0-126 0-158.1-16.3-28.2-14.4-51.2-37.3-65.6-65.6C0 526 0 484 0 400v-581.9h722V400c0 84 0 126-16.3 158.1-14.4 28.2-37.3 51.2-65.6 65.6C608 640 566 640 482 640H240z"/><path fill="none" stroke="#DE96A2" stroke-width="4.485" d="M374.6 1.3h345M27.7 579.5h666.6M2.4 1.3h345"/><path fill="none" stroke="#C0CBDF" stroke-width="11.213" d="M240 634.4c-42.1 0-73.3 0-98.1-2-24.7-2-42.4-6-57.5-13.7-27.2-13.8-49.3-35.9-63.1-63.1-7.7-15.1-11.7-32.8-13.7-57.5-2-24.7-2-56-2-98.1v-576.3h710.8V400c0 42.1 0 73.3-2 98.1-2 24.7-6 42.4-13.7 57.5-13.8 27.2-35.9 49.3-63.1 63.1-15.1 7.7-32.8 11.7-57.5 13.7-24.7 2-56 2-98.1 2H240zM2.4 233.1h717.2"/><ellipse fill="none" stroke="#DE96A2" stroke-width="4.485" cx="361.5" cy="1.8" rx="97.8" ry="97.6"/><circle fill="#C0CBDF" cx="361.5" cy="1.8" r="4.7"/><ellipse fill="none" stroke="#DE96A2" stroke-width="4.485" cx="172.2" cy="400.5" rx="97.8" ry="97.6"/><path fill="none" stroke="#DE96A2" stroke-width="4.485" d="M165.4 434.4v-20.9h-11.5m-79.2.1H59m226 0h-15.7M179 434.4v-20.9h11.5m-25.1-47v20.9h-11.5m-79.2 0H59m226 0h-15.7M179 366.5v20.9h11.5"/><circle fill="#DE96A2" cx="172.2" cy="400.5" r="4.7"/><circle fill="#DE96A2" cx="172" cy="206.5" r="7.8"/><circle fill="#DE96A2" cx="549.6" cy="206.5" r="7.8"/><path fill="none" stroke="#DE96A2" stroke-width="4.485" d="M404.9 579.5c0-24.2-19.7-43.9-43.9-43.9-24.3 0-43.9 19.6-43.9 43.9"/><ellipse fill="none" stroke="#DE96A2" stroke-width="4.485" cx="549.9" cy="400.5" rx="97.8" ry="97.6"/><path fill="none" stroke="#DE96A2" stroke-width="4.485" d="M453.4 414.2h-15.7m225.3 0h-15.7m-193.9-26.1h-15.7m225.3 0h-15.7m-104.2 46.3v-20.9h-11.5m25 20.9v-20.9h11.5m-25-47v20.9h-11.5m25-20.9v20.9h11.5"/><circle fill="#DE96A2" cx="549.9" cy="400.5" r="4.7"/></g></svg>