<svg version="1.1" id="Слой_1" xmlns="http://www.w3.org/2000/svg" xmlns:xlink="http://www.w3.org/1999/xlink" x="0" y="0" viewBox="0 0 148.2 223.7" xml:space="preserve"><style>.st0{fill:#f4f6fa}.st1{fill:#00205b}</style><path class="st0" d="M147.7 24.4c-2.2 3.6-6.6 10.5-10.8 14.4-.6-1.8-1.4-3.4-2.3-5.3 2.6-14.9-2.1-28-11-33.4 1.9 5.8 2.1 15.9 1.7 19.7-8.3-9.8-24.9-18.3-41-18.4 17.6 10.8 35.8 25.1 40.7 49.7-4.8 5.7-10.8 10.4-18.1 14 2.8-21.3-7.5-42.6-20.8-46.2 3.1 6.2 5.6 17.2 6 28.2-7.8-5.6-11.3-13.5-13.3-21.5-6 9.5-3.5 29.9 11.8 38.6a37 37 0 01-2.4 7.1c-4.4 1-9.3 1.7-14.6 2.3C62.1 67.5 61 43.9 62.1 32.8c-7.6 5.8-12.5 21.4-10.2 36-3.9.4-7.2 1.3-10.1 2.6-4.7-12.5-.8-30.4 1.1-36-9.6 4.3-18.2 19.4-16.2 36.8-4.3-4.1-8.2-8.3-10.3-15.7C25.8 35.7 44 15.4 54 6c-10.5.5-21.7 8.2-29.7 16.5 0-3.6 2.5-10.6 3.6-13.6-10.8 4.3-15.8 18.4-16.6 28.6l-1.8 2.4C8.3 37 5.9 30 4.9 26.4c-8.4 16.9-6.6 43.4 9.8 58.1-1.3 9.2.9 17.5 5.8 22.6-.2 1.3 0 2.7.4 3.7-4.4 8.1-8.9 20.9-9.6 28.3v.4l.1.4c1.6 6.9 4.2 13.5 8 19.8l.5.9c2.2.7 6.6 1.6 9.9 1.8-.9 12.5 2.5 25.2 9.7 35.7 7.7 11.3 19.5 20.1 32.5 24l5.1 1.6 1-5.2c3.7-19.3 13.4-30.6 21.8-42.2 5.2-7.2 9.4-13.2 12.4-18.1 8.5-13.3 7.2-22.3 2.9-30.5-2.4-4.5-7.6-14.8-7.6-14.8 11.3-8.8 12.3-26.4 9.6-34 22.2-12.7 33.7-34.4 30.5-54.5z"/><path class="st1" d="M146.1 31.1c-2.1 3.7-7 9.2-10.4 12.1-.9-3.6-1.9-5.9-3.6-9.4 1.5-9.2.5-21.6-5.4-28.4 1.9 6.7 1.4 14 .1 19.9-7.7-10-19.7-18.3-36.2-21.7 22.3 11.9 34.8 29.9 37.3 48C121.7 60 113.5 66 103.5 70c2.9-15.1-1.1-37.9-13.4-46.8 3.2 6.4 5.2 17.9 5.1 28.7-6.9-3.7-13.8-9.2-16.7-19.7-2.9 13 5.8 25.7 15.7 31.2-.8 4.2-2.1 8-3.9 10.8-5.4 1.2-11.1 2-17.4 2.4-11.3-4.3-14.1-25.2-13.1-37.1-5.2 8.7-7 21.3-4.6 31.8-6.1.2-10.8 1.7-14.5 3.6-4.9-10-4.1-24.6-1-34.3C30 49.8 27.5 65.9 30 77.9c-7.8-5-13.7-10.9-16.5-21.1C18.8 42.9 35 20.2 49 8.7 39.6 12 29.5 20.3 21.1 29.6c.5-6.1 1.7-12.5 4-17-6.9 5.2-10.9 16.4-11.2 25.9-1.7 2.3-3.2 4.4-4.5 6.6C7.7 41.4 5.9 36.7 5 32 .1 46.9 1.4 70.7 17.5 83.6c-.1.5-.2 1-.2 1.1-1.2 7.8.3 16.7 6.1 21.8-.8 1.5-.3 3.6.5 4.4-4.4 7.4-9.2 20.8-10 28.6 1.6 6.8 4.2 13.2 7.7 19.1 3.6.9 7.4 1.4 10.8 1.7-1.4 12.9 1.7 25.7 9.2 36.7 7.4 10.9 18.7 19.3 31.2 23.1l2.6.8.5-2.7c3.8-19.8 13.6-31.5 22.2-43.3 17.2-23.6 21.6-32.5 15.4-45.3-2.4-4.8-8.5-16.6-8.9-17.4 11.6-7.4 13.3-24.8 10.5-32.3-.2-.4-.4-1.2-.8-1.9 17.8-10 30.6-26.6 31.8-46.9z"/><path d="M75.4 105.1c3.8 5.6 10.4 9 18.4 8.9 2.4 4.3 5.3 12.2 6.7 16.9l-3.4-.9c6.2 15.7 6.1 23.5 2.2 29.4-9.8 14.4-25.9 28.2-30.1 53.8-17.8-8.2-26.6-21-30.2-33.3l3.1-5.6.1.5c1.9 10.8 11.2 23.8 20.9 29.4-4.3-10.6-5.3-22.9-4.8-31v-.4l.3.3s3.3 3.5 5.7 6.2c1.2-20.4 4.1-31.1 9.6-42.9.1-.2 1.5-2.8 1.6-3 2.8-6.3 3.2-13.2.6-19 .1 6.3-1.8 12.5-5.4 16.4 0 0-1.9-.1-3.3-.1-10.7 0-19.9 8.4-22.5 10.9l-.2.2-.1-.2c-1.7-2.9-4.7-3.6-7.9-4.4-4.2-1.1-8.7-2.3-10.3-8.4-2.5 4.4-4.6 6.8-7 7.6h-.2c2.1-10.8 9.4-24.3 10.4-26l3.6-3.7-5.1 1.6c.9-6.6 3.4-11.9 6.4-16.2 1.2-1.6 3.1-3 7.5-4.2-1.6-.3-4.6-.1-6.7.3C36.1 85 40 76.4 56.8 76c2.4 6.1 6.5 10.8 12.5 12.5 2.4.1 4.6.1 6.9 0 2.9-.1 2.8 2.2-.2 2.2-2 0-3.7-.2-5.4-.6 13.9 6.9 34.2-2.5 38.3-4.8 2.4 7.8-5.5 37.1-33.5 19.8zm-48.6-3c.9-3.1 2.2-5.8 3.6-8.4-3.2-1-6.3-2.6-8.4-3.8-.4 2.1.5 8.2 4.8 12.2z" fill="#c8102e"/><path class="st1" d="M44.3 116.8c-4.3 3.5-8 7.7-11.1 12.1 1.7-5.9 4.4-10.5 7.5-13.9-.6-1.8-1-3.6-1.2-5.8.9 1.3 2.2 2.8 3.2 3.8 5.2-4.8 11.1-6.7 15-6.3 0 0 1.1-4 1.6-7.3 1 3.1 1.6 7.7 1.4 10.8-1.1.1-2.2.2-3.3.4-4.6 8.6-9.9 8.2-13.1 6.2zm8.6-21c-5.1 0-11.1 3.2-12.9 7.4.2.9.4 1.5.9 2.6 2.5-4.5 7.2-8.1 12-10zm-18.2.1c-.3 2.8-.7 5.1-2 8.8.9-.3 2-.7 2.8-1.2.6-2.5.1-5.3-.8-7.6zm26.1 20.3c-1.5 3.5-6.1 6.9-12.5 7.9 4.4 2.1 10.2.5 13-2.5 0-2.4-.5-5.4-.5-5.4zm43.6-24c-4.1 1.8-8.5 2.7-12.8 2.9-4.8 2.1-8 5.4-9.2 9 2.2.8 9.6.1 12.9-3.6-3.1.7-6.2 0-7-1 6 .2 10.4-1 16.1-7.3z"/><path d="M18.3 32.9c-.5.6-1 1.2-1.5 1.9.2-3.4.7-7.1 1.6-9.6-.2 2.6-.2 5.5-.1 7.7zM9.8 58.4c-.6-.1-1.4-.5-1.8-1.2 1.1.1 2.4-1.6 2.8-2.8 3.1-7.8 10.9-21 16.3-27.3-6.4 5.2-15.9 18-19.4 25.1-1-3.4-1.9-6.9-2.6-10.7-.8 11 1.2 36.1 25.3 45.7.3-1.2.9-2.7 1.8-4.1C21.4 78.5 14.4 70 9.8 58.4zm23.5 1.8c-1.7 8.2-1 14.1.9 20 .8-1 1.7-1.9 2.8-2.8-2.6-4.9-3.4-10.6-3.7-17.2zm95.1-32.5c.9-2.7 1.4-6.3 1.4-9 1 4 .9 8 .4 11.8-.5-.9-1.2-1.9-1.8-2.8zm7.9 18.7c.2 1.4.4 2.8.6 4.1 1.9-2.9 3.9-6.8 5.1-10.8-1.8 2.2-3.9 4.9-5.7 6.7zm-18-24c6.3 9.2 11.9 19.1 12.7 30.3-6 9.1-18.5 18.2-35.2 23.4.9-1.5 2.1-2.3 2.1-2.3 2.7-6.1 3.9-21.1.5-29.3.2 3.7.3 8.6-.2 13.7-3.3-1.1-9.5-3.8-14.9-9.2 3 5.4 10.3 11 14.4 12.6-.7 4.3-2.1 11.4-5.8 15.5-6.1 1.6-12.7 2.6-19.8 2.9-8.4-2.1-12.6-9-15-21.7-1 12.4 3.2 25.5 13.8 26.8 31.2-.6 54.7-17.5 62.9-30.2.6-12.6-6.7-25.6-15.5-32.5z" fill="#b2b1b1"/><path class="st0" d="M70.5 130.9c-9.7-.6-18.7 5.5-25.8 15.7-2.1 3-4.7 7.2-6.1 8.7-3.6.4-11.5-.5-14.6-1.2-1.3-1.9-2.6-5-3.6-8 2.3.4 5.1 1.4 8.4 5.6.9-4.5 4-5 6.8-5.6-.3-1.4-1.4-4.6-2.2-6.1-4.2 1.1-11.2 1.2-14.8-.4.1-1 .3-2.6.5-3.4 2.1-.7 4.2-2.5 7.2-7.9 2.5 11.2 14.2 6.4 18.2 13.2 5-4.8 15.3-12.4 26-10.6zM49 162.1c-2.1-3.2-3.2-7.7-3.4-11-3.2 4.8-4.9 8.9-4.9 8.9-1.1.1-2.2.1-3.3.1-1 6.4-.3 13.6 1.7 20.2L42 175c1.9 10.8 11.4 24.3 21.4 29.8-4.3-10.4-5.5-22.9-5-31.4 0 0 3.5 3.7 6 6.5 1.2-21.7 4.3-32.5 10.9-46.2-7.5 12.7-21.6 18.3-26.3 28.4z"/></svg>