<svg version="1.1" id="Слой_1" xmlns="http://www.w3.org/2000/svg" xmlns:xlink="http://www.w3.org/1999/xlink" x="0" y="0" viewBox="0 0 416 210" xml:space="preserve"><path fill="none" stroke="#D5D9E0" stroke-width="2" d="M208 1v208.5M27.5 8.2v193.7m361-193.7v193.7"/><path fill="none" stroke="#CACED6" stroke-width="2" d="M149.4 209V1h117.8v208H149.4zm0-208v208H88.1c-15.4 0-27 0-36.1-.7s-15.8-2.2-21.5-5.1c-10.2-5.2-18.4-13.5-23.6-23.6-2.9-5.8-4.4-12.5-5.2-21.6-.7-9.1-.7-20.6-.7-36.1V88.1c0-15.4 0-27 .7-36.1.8-9.1 2.3-15.8 5.2-21.5 5.2-10.2 13.5-18.4 23.6-23.6C36.2 4 42.9 2.5 52 1.7 61.1 1 72.7 1 88.1 1h61.3zm117.8 208V1h60.7c15.4 0 26.9 0 36.1.7 9.1.7 15.8 2.2 21.5 5.1 10.2 5.2 18.4 13.5 23.6 23.6 2.9 5.7 4.4 12.4 5.1 21.5s.7 20.6.7 36.1v33.9c0 15.4 0 27-.7 36.1s-2.2 15.8-5.1 21.5c-5.2 10.2-13.5 18.4-23.6 23.6-5.7 2.9-12.4 4.4-21.5 5.1-9.1.7-20.6.7-36.1.7l-60.7.1h0z"/><circle fill="none" stroke="#CACED6" stroke-width="2" cx="208" cy="105" r="31.6"/><path fill="#0C1931" d="M208 115.1c-.9 0-1.6-.3-2.2-.9-.6-.6-.9-1.3-.9-2.2 0-.9.3-1.6.9-2.2.6-.6 1.3-.9 2.2-.9s1.7.3 2.2.9c.6.6.9 1.3.9 2.2 0 .9-.3 1.6-.9 2.2-.5.6-1.3.9-2.2.9zm0-13.4c-.9 0-1.6-.3-2.2-.9-.6-.6-.9-1.3-.9-2.2s.3-1.6.9-2.2c.6-.6 1.3-.9 2.2-.9s1.7.3 2.2.9c.6.6.9 1.3.9 2.2s-.3 1.6-.9 2.2c-.5.6-1.3.9-2.2.9z"/></svg>