<svg version="1.1" id="Слой_1" xmlns="http://www.w3.org/2000/svg" xmlns:xlink="http://www.w3.org/1999/xlink" x="0" y="0" viewBox="0 0 270 137.3" xml:space="preserve"><path d="M135 1.7V136M18.7 6.3v124.8M251.3 6.3v124.8" fill="none" stroke="#202a3c" stroke-width="2"/><path d="M4.9 116.9l-.9.5.9-.5zm15.5 15.5l-.5.9.5-.9zm244.7-15.5l.9.5-.9-.5zm-15.5 15.5l.5.9-.5-.9zm15.5-112l.9-.5-.9.5zM249.6 4.9l.5-.9-.5.9zM4.9 20.4l-.9-.5.9.5zM20.4 4.9l-.5-.9.5.9zM268 57.8v21.8h2V57.8h-2zM2 79.6V57.8H0v21.8h2zM57.8 2h38.8V0H57.8v2zm38.8 133.3H57.8v2h38.8v-2zm1 1V1h-2v135.3h2zM96.6 2h77.2V0H96.6v2zm77.2 0h38.5V0h-38.5v2zm38.4 133.3h-38.5v2h38.5v-2zM172.8 1v135.3h2V1h-2zM0 79.6C0 89.5 0 97 .5 103S2 113.5 4 117.5l1.8-.9C4 113 3 108.7 2.5 102.9 2 96.9 2 89.5 2 79.6H0zm57.8 55.7c-9.9 0-17.4 0-23.2-.5-5.9-.5-10.1-1.4-13.7-3.3l-.9 1.8c4 2 8.5 3 14.5 3.5s13.5.5 23.4.5v-2zM4 117.4c3.5 6.9 9.1 12.4 15.9 15.9l.9-1.8c-6.5-3.3-11.8-8.6-15.1-15.1l-1.7 1zm264-37.8c0 9.9 0 17.4-.5 23.2-.5 5.9-1.4 10.1-3.3 13.7l1.8.9c2-4 3-8.5 3.5-14.5s.5-13.5.5-23.4h-2zm-55.8 57.7c9.9 0 17.4 0 23.4-.5s10.5-1.5 14.5-3.5l-.9-1.8c-3.6 1.8-7.9 2.8-13.7 3.3-5.9.5-13.3.5-23.2.5v2zm52-20.8c-3.3 6.5-8.6 11.8-15.1 15.1l.9 1.8c6.9-3.5 12.4-9.1 15.9-15.9l-1.7-1zm5.8-58.7c0-9.9 0-17.4-.5-23.4S268 23.9 266 19.9l-1.8.9c1.8 3.6 2.8 7.9 3.3 13.7.5 5.9.5 13.3.5 23.2h2zM212.2 2c9.9 0 17.4 0 23.2.5 5.9.5 10.1 1.4 13.7 3.3L250 4c-4-2-8.5-3-14.5-3.5-5.8-.5-13.3-.5-23.3-.5v2zM266 19.9C262.5 13 256.9 7.5 250.1 4l-.9 1.8c6.5 3.3 11.8 8.6 15.1 15.1l1.7-1zM2 57.8c0-9.9 0-17.4.5-23.2.5-5.9 1.4-10.1 3.3-13.8L4 19.9c-2 4-3 8.5-3.5 14.5C0 40.3 0 47.8 0 57.8h2zM57.8 0c-9.9 0-17.4 0-23.4.5S23.9 2 19.9 4l.9 1.8C24.4 4 28.7 3 34.5 2.5 40.4 2 47.8 2 57.8 2V0zm-52 20.8C9.1 14.3 14.4 9 20.9 5.7l-1-1.7C13.1 7.5 7.5 13.1 4 19.9l1.8.9zm148.6 47.9c0 10.7-8.7 19.4-19.4 19.4v2c11.8 0 21.4-9.6 21.4-21.4h-2zM135 88c-10.7 0-19.4-8.7-19.4-19.4h-2c0 11.8 9.6 21.4 21.4 21.4v-2zm-19.4-19.3c0-10.7 8.7-19.4 19.4-19.4v-2c-11.8 0-21.4 9.6-21.4 21.4h2zM135 49.3c10.7 0 19.4 8.7 19.4 19.4h2c0-11.8-9.6-21.4-21.4-21.4v2zm38.8 86H96.6v2h77.2v-2z" fill="#505c71"/><path d="M135 75.2c-.6 0-1.1-.2-1.4-.6-.4-.4-.6-.9-.6-1.4 0-.6.2-1.1.6-1.4.4-.4.9-.6 1.4-.6.6 0 1.1.2 1.4.6.4.4.6.8.6 1.4 0 .6-.2 1.1-.6 1.4-.3.4-.8.6-1.4.6zm0-8.7c-.6 0-1.1-.2-1.4-.6-.4-.4-.6-.9-.6-1.4 0-.6.2-1.1.6-1.4.4-.4.9-.6 1.4-.6.6 0 1.1.2 1.4.6.4.4.6.8.6 1.4 0 .6-.2 1.1-.6 1.4-.3.4-.8.6-1.4.6z" fill="#f4f6fa"/></svg>