<svg version="1.1" id="Слой_1" xmlns="http://www.w3.org/2000/svg" xmlns:xlink="http://www.w3.org/1999/xlink" x="0" y="0" viewBox="0 0 418 212" xml:space="preserve"><path opacity=".2" fill="#F4F6FA" d="M7 181l-.9.5.9-.5zm24.1 24l-.5.9.5-.9zM411 181l.9.5-.9-.5zm-24.1 24l.5.9-.5-.9zM411 31.1l.9-.5-.9.5zM386.9 7l.5-.9-.5.9zM7 31.1l-.9-.5.9.5zM31.1 7l-.5-.9.5.9zM208 2v208.5h2V2h-2zM27.5 9.2v193.7h2V9.2h-2zm361 0v193.7h2V9.2h-2zM416 89.1V123h2V89.1h-2zM2 122.9V89.1H0V123h2zM89.1 2h60.3V0H89.1v2zm60.3 208H89.1v2h60.3v-2zm1 1V1h-2v210h2zm-1-209h119.8V0H149.4v2zm119.8 0h59.7V0h-59.7v2zm59.7 208h-59.7v2h59.7v-2zM268.2 1v210h2V1h-2zM0 122.9c0 15.4 0 27 .8 36.2.8 9.2 2.3 16.2 5.4 22.2l1.8-.9c-3-5.6-4.5-12.3-5.3-21.4-.7-9.1-.7-20.6-.7-36.1H0zM89.1 210c-15.4 0-27 0-36.1-.7-9.1-.7-15.8-2.2-21.5-5.1l-.9 1.8c6.1 3.1 13 4.6 22.2 5.4 9.2.8 20.8.8 36.2.8V210zm-83-28.6c5.4 10.5 14 19.1 24.5 24.5l.9-1.8c-10.2-5.2-18.4-13.5-23.6-23.6l-1.8.9zM416 122.9c0 15.4 0 27-.7 36.1-.7 9.1-2.2 15.8-5.1 21.5l1.8.9c3.1-6.1 4.6-13 5.4-22.2.8-9.2.8-20.8.8-36.2H416zM328.9 212c15.4 0 27 0 36.2-.8 9.2-.8 16.2-2.3 22.2-5.4l-.9-1.8c-5.7 2.9-12.4 4.4-21.5 5.1-9.1.7-20.6.7-36.1.7v2.2zm81.2-31.5c-5.2 10.2-13.5 18.4-23.6 23.6l.9 1.8c10.5-5.4 19.1-13.9 24.5-24.5l-1.8-.9zm7.9-91.4c0-15.4 0-27-.8-36.2-.8-9.2-2.3-16.2-5.4-22.2l-1.8.9c2.9 5.7 4.4 12.4 5.1 21.5.7 9.1.7 20.6.7 36.1h2.2zM328.9 2c15.4 0 26.9 0 36.1.7 9.1.7 15.8 2.2 21.5 5.1l.9-1.8c-6.1-3.1-13-4.6-22.2-5.4-9.3-.6-20.9-.6-36.3-.6v2zm83 28.6c-5.4-10.5-14-19.1-24.5-24.5l-.9 1.8c10.2 5.2 18.4 13.5 23.6 23.6l1.8-.9zM2 89.1c0-15.4 0-27 .7-36.1.8-9.1 2.3-15.8 5.2-21.5l-1.8-.9C3 36.7 1.5 43.6.7 52.8 0 62.1 0 73.7 0 89.1h2zM89.1 0c-15.4 0-27 0-36.2.8-9.3.7-16.2 2.2-22.3 5.3l.9 1.8C37.2 5 43.9 3.5 53 2.7 62.1 2 73.7 2 89.1 2V0zM7.9 31.5c5.2-10.2 13.5-18.4 23.6-23.6l-.9-1.8c-10.5 5.4-19.1 14-24.5 24.5l1.8.9zM269.2 210H149.4v2h119.8v-2zm-29.6-104c0 16.9-13.7 30.6-30.6 30.6v2c18 0 32.6-14.6 32.6-32.6h-2zM209 136.6c-16.9 0-30.6-13.7-30.6-30.6h-2c0 18 14.6 32.6 32.6 32.6v-2zM178.4 106c0-16.9 13.7-30.6 30.6-30.6v-2c-18 0-32.6 14.6-32.6 32.6h2zM209 75.4c16.9 0 30.6 13.7 30.6 30.6h2c0-18-14.6-32.6-32.6-32.6v2z"/><path fill="#F4F6FA" d="M209 116.1c-.9 0-1.6-.3-2.2-.9-.6-.6-.9-1.3-.9-2.2 0-.9.3-1.6.9-2.2.6-.6 1.3-.9 2.2-.9.9 0 1.7.3 2.2.9.6.6.9 1.3.9 2.2 0 .9-.3 1.6-.9 2.2-.5.6-1.3.9-2.2.9zm0-13.4c-.9 0-1.6-.3-2.2-.9-.6-.6-.9-1.3-.9-2.2 0-.9.3-1.6.9-2.2.6-.6 1.3-.9 2.2-.9.9 0 1.7.3 2.2.9.6.6.9 1.3.9 2.2 0 .9-.3 1.6-.9 2.2-.5.6-1.3.9-2.2.9z"/></svg>