<svg version="1.1" id="Слой_1" xmlns="http://www.w3.org/2000/svg" xmlns:xlink="http://www.w3.org/1999/xlink" x="0" y="0" viewBox="0 0 204 103" xml:space="preserve"><style>.st1{fill:none;stroke-width:1.7831;stroke:#d3d9e3}</style><path d="M102 .5v102.2M13.5 6.4v90.3m177-90.2v89.8" fill="none" stroke="#dde2eb" stroke-width="1.783"/><path class="st1" d="M73.6 102.1V.9h57v101.2h-57zm-.7 0H50.6c-8.9 0-15.5 0-20.7-.4-5.2-.4-9-1.3-12.2-2.9-5.8-2.9-10.5-7.6-13.4-13.4-1.6-3.2-2.5-7-2.9-12.2C1 68 1 61.4 1 52.5v-1.8c0-8.9 0-15.5.4-20.7.4-5.2 1.3-9 2.9-12.2C7.2 12 11.9 7.3 17.7 4.4c3.2-1.6 7-2.5 12.2-2.9 5.2-.4 11.8-.4 20.7-.4h22.3m58.5-.2h22c8.9 0 15.5 0 20.7.4 5.2.4 9 1.3 12.2 2.9 5.8 2.9 10.5 7.6 13.4 13.4 1.6 3.2 2.5 7 2.9 12.2.4 5.2.4 11.8.4 20.7v1.8c0 8.9 0 15.5-.4 20.7-.4 5.2-1.3 9-2.9 12.2-2.9 5.8-7.6 10.5-13.4 13.4-3.2 1.6-7 2.5-12.2 2.9-5.2.4-11.8.4-20.7.4h-22"/><circle class="st1" cx="102" cy="51.5" r="15.5"/><path d="M102 56.7c-.5 0-.9-.2-1.3-.5s-.5-.8-.5-1.3.2-.9.5-1.3c.3-.3.8-.5 1.3-.5s1 .2 1.3.5c.3.3.5.7.5 1.3 0 .5-.2.9-.5 1.3-.3.3-.8.5-1.3.5zm0-7.8c-.5 0-.9-.2-1.3-.5-.3-.3-.5-.8-.5-1.3s.2-.9.5-1.3c.3-.3.8-.5 1.3-.5s1 .2 1.3.5c.3.3.5.7.5 1.3 0 .5-.2.9-.5 1.3s-.8.5-1.3.5z" fill="#0c1931"/></svg>