<svg version="1.1" id="Слой_1" xmlns="http://www.w3.org/2000/svg" xmlns:xlink="http://www.w3.org/1999/xlink" x="0" y="0" viewBox="0 0 199 202.6" xml:space="preserve"><path fill="#F4F6FA" d="M155.6 18c-1.6 2.6-4.9 7.7-8 10.6-.4-1.3-1-2.5-1.7-3.9 1.9-11-1.5-20.6-8.1-24.6 1.4 4.3 1.5 11.7 1.2 14.5-6.1-7.3-18.3-13.5-30.2-13.6 12.9 8 26.4 18.5 30 36.6-3.6 4.2-7.9 7.6-13.4 10.3 2-15.7-5.5-31.4-15.3-34 2.3 4.6 4.1 12.6 4.4 20.8-5.7-4.1-8.4-10-9.8-15.8-4.4 7-2.5 22 8.7 28.4-.4 1.9-1 3.6-1.7 5.2-3.3.7-6.8 1.2-10.8 1.7-8.5-4.5-9.3-21.9-8.5-30-5.5 4.3-9.2 15.8-7.4 26.5-2.9.3-5.3.9-7.4 1.9-3.5-9.2-.6-22.4.8-26.5-7.1 3.2-13.4 14.3-11.9 27.1-3.2-3.1-6-6.1-7.6-11.6 6.8-15.3 20.2-30.3 27.6-37.2-7.7.4-16 6-21.9 12.1 0-2.6 1.8-7.8 2.7-10-8 3.2-11.6 13.6-12.2 21.1-.4.6-.9 1.2-1.3 1.7-1-2.1-2.8-7.3-3.5-9.9-6.2 12.4-4.9 32 7.2 42.8-.9 6.8.7 12.9 4.3 16.6-.1.9 0 2 .3 2.8-3.3 6-6.5 15.4-7.1 20.9v.3l.1.3c1.2 5.1 3.1 10 5.9 14.6l.4.7c1.6.5 4.9 1.2 7.3 1.3-.7 9.2 1.8 18.5 7.1 26.3 5.7 8.4 14.4 14.8 23.9 17.7l3.8 1.2.7-3.9c2.8-14.3 9.9-22.5 16.1-31.1 3.9-5.3 6.9-9.7 9.2-13.3 6.3-9.8 5.3-16.4 2.1-22.5-1.7-3.3-5.6-10.9-5.6-10.9 8.4-6.5 9.1-19.5 7.1-25.1 16.3-9.3 24.8-25.3 22.5-40.1z"/><path fill="#00205B" d="M154.3 22.9c-1.5 2.8-5.2 6.8-7.6 8.9-.7-2.6-1.4-4.4-2.6-6.9 1.1-6.8.4-15.9-4-20.9 1.4 4.9 1 10.3.1 14.7-5.7-7.4-14.5-13.5-26.7-16 16.4 8.8 25.7 22 27.5 35.4-4.6 6.1-10.6 10.5-18 13.5 2.1-11.1-.8-27.9-9.9-34.5 2.3 4.7 3.9 13.2 3.8 21.2-5.1-2.8-10.2-6.8-12.3-14.5-2.1 9.6 4.3 19 11.6 23-.6 3.1-1.5 5.9-2.9 7.9-4 .9-8.2 1.5-12.8 1.7-8.4-3.2-10.4-18.5-9.7-27.3-3.9 6.4-5.2 15.7-3.4 23.4-4.5.1-8 1.2-10.7 2.7-3.6-7.3-3.1-18.1-.7-25.3-7.1 6.8-9 18.7-7.1 27.5-5.7-3.7-10.1-8.1-12.1-15.6 3.9-10.2 15.8-26.9 26.1-35.4-7 2.5-14.5 8.6-20.7 15.4.4-4.5 1.2-9.2 3-12.5-5.1 3.8-8.1 12.1-8.3 19-1.2 1.7-2.3 3.3-3.3 4.9-1.2-2.7-2.5-6.2-3.2-9.7-3.6 11-2.7 28.6 9.2 38.1-.1.4-.1.7-.1.8-.9 5.7.2 12.3 4.5 16.1-.6 1.1-.2 2.7.4 3.3-3.3 5.5-6.8 15.3-7.3 21.1 1.2 5 3.1 9.7 5.7 14.1 2.6.7 5.5 1 8 1.2-1.2 9.5 1.2 18.9 6.7 27 5.5 8.1 13.8 14.3 23 17l1.9.6.4-2c2.8-14.6 10-23.2 16.4-31.9 12.7-17.4 15.9-23.9 11.3-33.4-1.7-3.6-6.3-12.2-6.5-12.8 8.6-5.5 9.8-18.2 7.7-23.8-.1-.3-.3-.9-.6-1.4 12.9-7.4 22.4-19.6 23.2-34.6z"/><path fill="#C8102E" d="M102.3 77.5c2.8 4.1 7.6 6.6 13.6 6.5 1.7 3.2 3.9 9 4.9 12.4l-2.5-.7c4.6 11.6 4.5 17.3 1.6 21.7-7.2 10.6-19.1 20.8-22.2 39.6-13.1-6-19.6-15.5-22.2-24.6l2.3-4.1.1.4c1.4 7.9 8.3 17.5 15.4 21.7-3.2-7.8-3.9-16.9-3.6-22.8v-.3l.2.2s2.4 2.5 4.2 4.6c.9-15 3.1-22.9 7.1-31.6.1-.1 1.1-2 1.2-2.2 2-4.7 2.3-9.7.4-14 .1 4.7-1.3 9.2-4 12.1 0 0-1.4-.1-2.4-.1-7.9 0-14.7 6.2-16.6 8.1l-.1.1-.1-.1c-1.2-2.1-3.5-2.7-5.8-3.3-3.1-.8-6.4-1.7-7.6-6.2-1.8 3.3-3.4 5-5.2 5.6h-.1c1.5-8 6.9-17.9 7.6-19.2l2.6-2.8-3.8 1.2c.7-4.9 2.5-8.8 4.7-11.9.9-1.2 2.3-2.2 5.5-3.1-1.2-.2-3.4-.1-4.9.2.6-2.3 3.5-8.7 15.8-9 1.7 4.5 4.8 7.9 9.2 9.2 1.7.1 3.4.1 5.1 0 2.1-.1 2 1.6-.1 1.6-1.5 0-2.8-.1-4-.4 10.3 5.1 25.2-1.8 28.2-3.6 2 5.9-3.9 27.5-24.5 14.8zm-35.9-2.3c.7-2.3 1.6-4.3 2.6-6.2-2.3-.7-4.7-1.9-6.2-2.8-.2 1.6.5 6.1 3.6 9z"/><path fill="#00205B" d="M79.3 86.1c-3.2 2.5-5.9 5.7-8.2 8.9 1.2-4.4 3.3-7.7 5.5-10.3-.4-1.3-.7-2.7-.9-4.3.7.9 1.6 2 2.3 2.8 3.9-3.6 8.2-4.9 11.1-4.7 0 0 .8-3 1.2-5.4.7 2.3 1.2 5.7 1 8-.8.1-1.6.1-2.4.3-3.3 6.4-7.2 6.1-9.6 4.7zm6.4-15.5c-3.8 0-8.2 2.3-9.5 5.5.1.7.3 1.1.7 1.9 1.8-3.3 5.3-6 8.8-7.4zm-13.4.1c-.2 2-.5 3.8-1.5 6.5.7-.2 1.5-.5 2-.9.5-1.9.1-3.9-.5-5.6zm19.2 14.9c-1.1 2.5-4.5 5.1-9.2 5.8 3.3 1.5 7.5.4 9.6-1.8 0-1.7-.4-4-.4-4zM123.7 68c-3.1 1.3-6.3 2-9.5 2.1-3.6 1.5-5.9 4-6.8 6.6 1.6.6 7.1.1 9.5-2.6-2.3.5-4.6 0-5.2-.7 4.5.1 7.7-.8 12-5.4z"/><path fill="#B2B1B1" d="M60.2 24.3c-.4.4-.7.9-1.1 1.4.1-2.5.5-5.2 1.2-7.1-.2 1.9-.2 4-.1 5.7zM53.9 43c-.4-.1-1-.4-1.3-.9.8.1 1.7-1.2 2-2 2.3-5.7 8.1-15.5 12-20.1-4.7 3.8-11.6 13.2-14.3 18.5-.7-2.5-1.4-5.1-1.9-7.9-.6 8.1.9 26.6 18.6 33.7.2-.9.7-2 1.3-3.1-7.8-3.3-13-9.6-16.4-18.2zm17.3 1.3c-1.2 6-.7 10.4.7 14.8.6-.7 1.2-1.4 2-2-1.9-3.7-2.4-7.9-2.7-12.8zm70.1-23.9c.7-2 1-4.7 1-6.6.7 3 .7 5.9.3 8.7-.3-.7-.8-1.4-1.3-2.1zm5.8 13.8c.1 1 .3 2 .4 3.1 1.4-2.1 2.9-5 3.8-7.9-1.2 1.5-2.8 3.5-4.2 4.8zm-13.2-17.7c4.7 6.8 8.8 14.1 9.4 22.3-4.4 6.7-13.7 13.4-26 17.2.7-1.1 1.5-1.7 1.5-1.7 2-4.5 2.9-15.6.4-21.6.1 2.8.2 6.3-.1 10.1-2.4-.8-7-2.8-11-6.8 2.2 4 7.6 8.1 10.6 9.3-.5 3.1-1.6 8.4-4.3 11.4-4.5 1.2-9.4 1.9-14.6 2.1-6.2-1.5-9.3-6.6-11.1-16C88 52 91 61.6 98.9 62.6c23-.4 40.3-12.9 46.4-22.2.5-9.2-4.9-18.8-11.4-23.9z"/><path fill="#F4F6FA" d="M98.7 96.5c-7.1-.4-13.8 4.1-19 11.6-1.5 2.2-3.5 5.3-4.5 6.4-2.7.3-8.5-.4-10.8-.9-.9-1.4-1.9-3.7-2.6-5.9 1.7.3 3.8 1 6.2 4.1.7-3.3 3-3.7 5-4.1-.2-1-1-3.4-1.6-4.5-3.1.8-8.3.9-10.9-.3.1-.7.2-1.9.4-2.5 1.5-.5 3.1-1.8 5.3-5.8 1.8 8.3 10.5 4.7 13.4 9.7 3.6-3.5 11.1-9.1 19.1-7.8zm-15.9 22.9c-1.5-2.3-2.3-5.7-2.5-8.1-2.3 3.6-3.6 6.5-3.6 6.5-.8.1-1.6.1-2.4.1-.7 4.7-.2 10 1.2 14.9l2.1-3.9c1.4 8 8.4 17.9 15.8 22-3.2-7.6-4.1-16.9-3.7-23.1 0 0 2.5 2.8 4.4 4.8.9-16 3.2-23.9 8.1-34-5.5 9.3-15.9 13.4-19.4 20.8z"/><path fill-rule="evenodd" clip-rule="evenodd" fill="#F4F6FA" d="M59.9 177.8H41.4l-2 2v20.9l2 2h18.5l2-2v-20.9c-.8-.9-1.3-1.3-2-2zm-5.2 18.6h-8v-12.6h8v12.6zM199 179.7l-2-2h-18.5l-2 2v20.9l2 2H197l2-2v-20.9zm-7.2 16.7h-8v-12.6h8v12.6zm-22.3-27.9l2 2v30.2l-2 2H151l-2-2v-20.9l2-2h12.4l-3.3 6h-3.9v12.6h8v-21.9h-11.9l-3.3-6h20.5zm-82.3 9.3l2 2v14.8l-2 2H74.9l3.3-6h3.9V184h-8v18.7h-7.2v-22.8l-2-2 22.3-.1zm-52.7-9.3l3.3 6H34v28h-7.2v-18.7h-5.2v18.7h-7.2v-18.7H9.2v18.7H2v-21.2l-2-3.6h26.8v-3.2H3.4l-3.3-6h34.4zm82 9.3v24.7h-7.2v-18.7h-8v18.7h-7.2v-22.8l-2-2 24.4.1zm26.1 0l2 2v11.5l-2 2h-12.4l3.3-6h3.9V184h-8v12.7h15.1l-3.3 6h-17.1l-2-2v-20.9l-2-2h22.5z"/></svg>