<svg width="75" height="75" viewBox="0 0 75 75" fill="none" xmlns="http://www.w3.org/2000/svg">
<path d="M29.5605 20.4785C8.42285 41.6016 10.0928 39.7559 11.001 41.001C11.8799 42.1875 11.6748 43.5791 10.5322 44.3408C9.77051 44.8389 8.65723 44.7803 7.86621 44.1797C7.5 43.9014 7.16309 43.7695 6.79688 43.7695C6.28418 43.7695 6.09375 43.9307 3.85254 46.1719C1.58203 48.457 1.46484 48.6035 1.46484 49.1455C1.46484 49.7168 1.64062 49.8926 13.374 61.626C25.1074 73.3594 25.2832 73.5352 25.8545 73.5352C26.3965 73.5352 26.543 73.418 28.8281 71.1475C31.0693 68.9062 31.2305 68.7158 31.2305 68.2031C31.2305 67.8369 31.0986 67.5 30.8203 67.1338C30.2197 66.3428 30.1611 65.2295 30.6592 64.4678C31.4209 63.3252 32.8125 63.1201 33.999 63.999C35.2441 64.9072 33.3984 66.5771 54.5215 45.4395C73.4033 26.5576 73.5352 26.4404 73.5352 25.8545C73.5352 25.2832 73.418 25.1514 61.626 13.374C49.8486 1.58203 49.7168 1.46484 49.1455 1.46484C48.5596 1.46484 48.4424 1.59668 29.5605 20.4785ZM59.8389 15.2344L70.5322 25.9277L52.7197 43.7402L34.9072 61.5527L34.4092 61.2891C34.0283 61.0693 33.6035 61.0107 32.5195 61.0107C31.2891 61.0107 31.04 61.0547 30.3955 61.4062C29.4141 61.9189 28.667 62.7246 28.1836 63.7646C27.832 64.541 27.8027 64.7607 27.8613 65.8887C27.9053 66.665 28.0225 67.3389 28.1689 67.6172L28.4033 68.0713L27.1582 69.3018L25.9277 70.5322L15.2051 59.7949L4.46777 49.0723L5.69824 47.8418L6.92871 46.5967L7.38281 46.8457C7.71973 47.0361 8.20312 47.0947 9.30176 47.0947C10.6055 47.0947 10.8545 47.0508 11.5137 46.6992C13.0078 45.9082 13.916 44.4727 14.0332 42.7002C14.0771 41.8945 14.0332 41.499 13.7842 40.8691L13.4766 40.0635L31.2305 22.3096C41.001 12.5391 49.0283 4.54102 49.0723 4.54102C49.1162 4.54102 53.9648 9.36035 59.8389 15.2344Z" fill="#F4F6FA"/>
<path d="M47.0215 26.7334V37.3535H48.2666H49.5117V26.7334V16.1133H48.2666H47.0215V26.7334Z" fill="#F4F6FA"/>
<path d="M41.0596 22.3389C39.7706 22.9834 39.0089 24.3604 38.8624 26.2939C38.6427 29.0771 40.2979 31.4941 42.4073 31.4941C44.9561 31.4941 46.6846 28.0371 45.7032 24.8877C45.3223 23.6279 44.6925 22.8076 43.7696 22.3535C42.8028 21.8701 42.0264 21.8701 41.0596 22.3389ZM42.9053 24.8437C43.7843 25.957 43.5938 28.3008 42.5831 28.916C42.0557 29.2383 41.3087 27.9053 41.3087 26.6602C41.3233 25.6934 41.9386 24.4629 42.422 24.4629C42.5245 24.4629 42.7442 24.6387 42.9053 24.8437Z" fill="#F4F6FA"/>
<path d="M52.7782 22.3388C52.3681 22.5586 51.8407 22.9541 51.621 23.247C49.8046 25.6347 50.4198 29.9414 52.7489 31.1133C53.745 31.5967 54.5067 31.6113 55.4882 31.1133C56.411 30.6592 57.0409 29.8388 57.4218 28.5791C57.9638 26.8359 57.6708 24.6679 56.6894 23.3349C56.1474 22.5879 54.9755 21.9726 54.1259 21.9726C53.7743 21.9726 53.2177 22.1338 52.7782 22.3388ZM54.6239 24.8437C55.5028 25.957 55.3124 28.3008 54.3017 28.916C53.7743 29.2383 53.0273 27.9053 53.0273 26.6601C53.0419 25.6933 53.6571 24.4629 54.1405 24.4629C54.2431 24.4629 54.4628 24.6387 54.6239 24.8437Z" fill="#F4F6FA"/>
<path d="M22.4414 34.1748L18.3105 38.3057L19.1602 39.1553C19.6289 39.6094 20.0684 39.9902 20.1416 39.9902C20.332 39.9902 28.418 31.9043 28.418 31.7139C28.418 31.5234 26.9238 30.0293 26.7334 30.0293C26.6455 30.0293 24.7266 31.8896 22.4414 34.1748Z" fill="#F4F6FA"/>
<path d="M25.7812 37.4268L21.6064 41.6016L22.5293 42.5098L23.4375 43.4326L27.6416 39.2285L31.8604 35.0098L30.9814 34.1309C30.498 33.6475 30.0732 33.252 30.0293 33.252C29.9854 33.252 28.0811 35.127 25.7812 37.4268Z" fill="#F4F6FA"/>
<path d="M29.1504 40.7959L24.9756 44.9707L25.8545 45.8496L26.7334 46.7285L30.8643 42.5977C33.1494 40.3125 35.0098 38.3789 35.0098 38.3057C35.0098 38.1592 33.5303 36.6211 33.3984 36.6211C33.3545 36.6211 31.4502 38.4961 29.1504 40.7959Z" fill="#F4F6FA"/>
<path d="M32.4756 44.0625L28.2715 48.2666L29.1504 49.1455L30.0293 50.0244L34.248 45.8057L38.4521 41.6016L37.5732 40.7227L36.6943 39.8438L32.4756 44.0625Z" fill="#F4F6FA"/>
<path d="M35.7422 47.3877L31.5674 51.5625L32.4902 52.4707L33.3984 53.3936L37.6025 49.1895L41.8213 44.9707L40.9424 44.0918C40.459 43.6084 40.0342 43.2129 39.9902 43.2129C39.9463 43.2129 38.042 45.0879 35.7422 47.3877Z" fill="#F4F6FA"/>
<path d="M13.4033 46.582L12.5391 47.4609L13.4033 48.3398L14.2822 49.2188L15.1611 48.3398L16.04 47.4609L15.1611 46.582L14.2822 45.7031L13.4033 46.582Z" fill="#F4F6FA"/>
<path d="M39.0674 50.6543C36.8408 52.8809 35.0098 54.7852 35.0098 54.8584C35.0098 54.9463 35.3906 55.3857 35.8594 55.8545L36.6943 56.6895L40.8398 52.5439C43.1104 50.2734 44.9707 48.3398 44.9707 48.2666C44.9707 48.0762 43.4766 46.582 43.2861 46.582C43.1982 46.582 41.3086 48.4131 39.0674 50.6543Z" fill="#F4F6FA"/>
<path d="M16.6553 49.9219L15.8203 50.7715L16.6992 51.6357L17.5781 52.5L18.457 51.6357L19.3359 50.7715L18.501 49.9219C18.0322 49.4531 17.6221 49.0723 17.5781 49.0723C17.5342 49.0723 17.124 49.4531 16.6553 49.9219Z" fill="#F4F6FA"/>
<path d="M19.9951 53.1738L19.1162 54.0527L20.0391 54.9756L20.9473 55.8838L21.8262 55.0049L22.7051 54.126L21.7822 53.2031L20.8594 52.2949L19.9951 53.1738Z" fill="#F4F6FA"/>
<path d="M23.3203 56.4404C22.8955 56.8652 22.5586 57.2754 22.5586 57.3633C22.5586 57.5537 24.0674 59.0332 24.2578 59.0332C24.3311 59.0332 24.7559 58.667 25.1953 58.2275L25.9863 57.4219L25.1221 56.543C24.6387 56.0596 24.2139 55.6641 24.1699 55.6641C24.126 55.6641 23.7451 56.0156 23.3203 56.4404Z" fill="#F4F6FA"/>
<path d="M26.6162 59.8828L25.7812 60.7324L26.6602 61.5967L27.5391 62.4609L28.418 61.5967L29.2969 60.7324L28.4619 59.8828C27.9932 59.4141 27.583 59.0332 27.5391 59.0332C27.4951 59.0332 27.085 59.4141 26.6162 59.8828Z" fill="#F4F6FA"/>
</svg>
