<svg width="75" height="75" viewBox="0 0 75 75" fill="none" xmlns="http://www.w3.org/2000/svg">
<path d="M19.5557 1.4502C19.2334 1.59668 18.7647 1.94824 18.501 2.21191C17.6953 3.06152 17.5781 3.54492 17.5781 6.00586V8.20312H16.5234C15.2783 8.20312 14.5166 8.49609 13.8135 9.24316C12.8467 10.2686 12.8906 9.44824 12.8906 24.2139V37.5879L11.8359 38.1006C9.90234 39.0234 8.20313 40.2393 6.5918 41.8799C2.90039 45.6006 1.17188 49.834 1.17188 55.0781C1.17188 59.0625 2.16797 62.3584 4.36523 65.6982C5.24414 67.0166 7.9834 69.7559 9.30176 70.6348C11.543 72.1143 14.165 73.1689 16.6113 73.6084C18.2959 73.9014 21.5479 73.9014 23.2324 73.6084C29.0332 72.583 34.3506 68.54 36.8994 63.1641L37.4121 62.1094H54.3311C70.5176 62.1094 71.294 62.0947 71.8506 61.8311C72.1729 61.6846 72.6416 61.333 72.9053 61.0693C73.9014 60.0146 73.8281 62.0215 73.8281 35.1562C73.8281 8.29102 73.9014 10.2979 72.9053 9.24316C72.2022 8.49609 71.4404 8.20312 70.21 8.20312H69.1406V5.96191C69.1406 3.45703 68.9941 2.94434 68.1006 2.09473C67.2656 1.30371 66.7529 1.17188 64.4531 1.17188C62.1533 1.17188 61.6406 1.30371 60.8057 2.09473C59.9121 2.94434 59.7656 3.45703 59.7656 5.96191V8.20312H43.3594H26.9531V6.00586C26.9531 3.54492 26.8359 3.06152 26.0303 2.21191C25.1807 1.31836 24.6533 1.17188 22.2656 1.17188C20.5078 1.17188 20.0391 1.23047 19.5557 1.4502ZM23.7891 3.7207C24.5654 4.04297 24.6094 4.36523 24.6094 9.4043C24.6094 14.4727 24.5654 14.7803 23.7305 15.0732C23.1152 15.2783 21.416 15.2783 20.8008 15.0732C19.9658 14.7803 19.9219 14.4727 19.9219 9.4043C19.9219 4.40918 19.9658 4.04297 20.7129 3.7207C21.3135 3.47168 23.1738 3.45703 23.7891 3.7207ZM65.9766 3.7207C66.7529 4.04297 66.7969 4.36523 66.7969 9.4043C66.7969 14.4727 66.7529 14.7803 65.918 15.0732C65.3027 15.2783 63.6035 15.2783 62.9883 15.0732C62.1533 14.7803 62.1094 14.4727 62.1094 9.4043C62.1094 4.40918 62.1533 4.04297 62.9004 3.7207C63.501 3.47168 65.3613 3.45703 65.9766 3.7207ZM17.5781 12.7734C17.5781 15.293 17.7246 15.8057 18.6182 16.6553C19.4531 17.4463 19.9658 17.5781 22.2656 17.5781C24.5654 17.5781 25.0781 17.4463 25.9131 16.6553C26.8066 15.8057 26.9531 15.293 26.9531 12.7734V10.5469H43.3594H59.7656V12.7734C59.7656 15.293 59.9121 15.8057 60.8057 16.6553C61.6406 17.4463 62.1533 17.5781 64.4531 17.5781C66.7529 17.5781 67.2656 17.4463 68.1006 16.6553C68.9941 15.8057 69.1406 15.293 69.1406 12.7734V10.5469H69.6387C69.9024 10.5469 70.3418 10.6201 70.6055 10.708C71.4551 11.0156 71.4844 11.25 71.4844 17.0654V22.2656H46.875H22.2656V23.4375V24.6094H46.875H71.4844V36.1377C71.4844 42.8174 71.4258 47.6074 71.3525 47.5195C71.2793 47.4463 70.459 46.3037 69.5068 44.9707C68.5693 43.6377 67.6904 42.4658 67.5586 42.3633C67.4268 42.2754 67.0752 42.1875 66.7676 42.1875C66.2842 42.1875 66.0059 42.3633 64.4238 43.6816C63.4277 44.4873 62.5049 45.2637 62.3584 45.3809C62.124 45.5859 62.1094 45.4834 62.1094 43.3154V41.0156H65.625H69.1406V39.8438V38.6719H64.8047C62.168 38.6719 60.3662 38.7305 60.2051 38.8184C59.7217 39.082 59.6191 39.9316 59.6191 43.8721V47.6807L52.3682 53.7305L45.1172 59.7656H41.6602H38.1885L38.291 59.2236C38.335 58.916 38.4229 58.4033 38.4668 58.0664L38.5547 57.4805L37.3535 57.334C36.5332 57.2314 36.1377 57.2461 36.1084 57.3486C35.6689 59.3262 35.2295 60.835 34.8047 61.7432C33.1055 65.4053 30 68.4668 26.3672 70.0342C17.2412 73.9746 6.84082 68.9062 4.13086 59.2236C3.76465 57.9053 3.73535 57.583 3.73535 55.0781C3.73535 52.5732 3.76465 52.251 4.13086 50.9326C6.84082 41.25 17.2412 36.1816 26.3672 40.1221C29.9707 41.6748 33.0615 44.6777 34.7168 48.252C35.0244 48.9111 35.3613 49.7314 35.4639 50.0977C35.5664 50.4639 35.6543 50.7715 35.6689 50.7861C35.6982 50.8447 37.8662 50.2148 37.9834 50.1123C38.1299 49.9658 37.4561 48.0615 36.7383 46.5967C35.5518 44.1943 33.501 41.7627 31.1865 40.0049C29.1064 38.4229 25.9277 37.0312 23.3496 36.5625L22.1924 36.3574L24.2871 36.3428C26.1621 36.3281 26.3965 36.2988 26.6602 36.0352C26.9385 35.7568 26.9531 35.5518 26.9531 31.6406C26.9531 27.7295 26.9385 27.5244 26.6602 27.2461C26.3818 26.9678 26.1768 26.9531 22.2656 26.9531C18.3545 26.9531 18.1494 26.9678 17.8711 27.2461C17.5928 27.5244 17.5781 27.7295 17.5781 31.6406C17.5781 35.5225 17.5928 35.7568 17.8711 36.0352C18.1494 36.3135 18.1494 36.3135 17.6074 36.4014C17.3145 36.4453 16.6553 36.5771 16.1572 36.6797L15.2344 36.8701V24.3896C15.2344 15.4688 15.2783 11.7773 15.3955 11.4258C15.5859 10.8838 16.1865 10.5615 17.0361 10.5469H17.5781V12.7734ZM24.6094 31.6406V33.9844H22.2656H19.9219V31.6406V29.2969H22.2656H24.6094V31.6406ZM68.6865 48.1934L70.7227 51.0352L60.8936 55.415L51.0645 59.7803L50.127 59.7363L49.1895 59.6924L57.8027 52.4854C62.5488 48.5303 66.4746 45.293 66.5332 45.3076C66.6065 45.3223 67.5732 46.626 68.6865 48.1934ZM71.3379 58.7842C71.0449 59.7656 71.0303 59.7656 63.7647 59.7656L57.3486 59.751L64.3799 56.6309L71.4111 53.4961L71.4551 55.8691C71.4844 57.3047 71.4404 58.4473 71.3379 58.7842Z" fill="#F4F6FA"/>
<path d="M17.5781 23.4375V24.6094H18.75H19.9219V23.4375V22.2656H18.75H17.5781V23.4375Z" fill="#F4F6FA"/>
<path d="M31.9336 27.2461C31.6553 27.5244 31.6406 27.7295 31.6406 31.6406C31.6406 35.5518 31.6553 35.7568 31.9336 36.0352C32.2119 36.3135 32.417 36.3281 36.3281 36.3281C40.2393 36.3281 40.4443 36.3135 40.7227 36.0352C41.001 35.7568 41.0156 35.5518 41.0156 31.6406C41.0156 27.7295 41.001 27.5244 40.7227 27.2461C40.4443 26.9678 40.2393 26.9531 36.3281 26.9531C32.417 26.9531 32.2119 26.9678 31.9336 27.2461ZM38.6719 31.6406V33.9844H36.3281H33.9844V31.6406V29.2969H36.3281H38.6719V31.6406Z" fill="#F4F6FA"/>
<path d="M45.9961 27.2461C45.7178 27.5244 45.7031 27.7295 45.7031 31.6406C45.7031 35.5518 45.7178 35.7568 45.9961 36.0352C46.2744 36.3135 46.4795 36.3281 50.3906 36.3281C54.3018 36.3281 54.5068 36.3135 54.7852 36.0352C55.0635 35.7568 55.0781 35.5518 55.0781 31.6406C55.0781 27.7295 55.0635 27.5244 54.7852 27.2461C54.5068 26.9678 54.3018 26.9531 50.3906 26.9531C46.4795 26.9531 46.2744 26.9678 45.9961 27.2461ZM52.7344 31.6406V33.9844H50.3906H48.0469V31.6406V29.2969H50.3906H52.7344V31.6406Z" fill="#F4F6FA"/>
<path d="M60.0586 27.2461C59.7803 27.5244 59.7656 27.7295 59.7656 31.6406C59.7656 35.5518 59.7803 35.7568 60.0586 36.0352C60.3369 36.3135 60.542 36.3281 64.4531 36.3281C68.3643 36.3281 68.5693 36.3135 68.8477 36.0352C69.126 35.7568 69.1406 35.5518 69.1406 31.6406C69.1406 27.7295 69.126 27.5244 68.8477 27.2461C68.5693 26.9678 68.3643 26.9531 64.4531 26.9531C60.542 26.9531 60.3369 26.9678 60.0586 27.2461ZM66.7969 31.6406V33.9844H64.4531H62.1094V31.6406V29.2969H64.4531H66.7969V31.6406Z" fill="#F4F6FA"/>
<path d="M32.8125 39.8438V41.0156H35.7422H38.6719V44.5312V48.0469H39.8438H41.0156V43.6523C41.0156 39.4482 41.001 39.2432 40.7227 38.9648C40.4443 38.6865 40.2393 38.6719 36.6211 38.6719H32.8125V39.8438Z" fill="#F4F6FA"/>
<path d="M45.9961 38.9648C45.7178 39.2432 45.7031 39.4482 45.7031 43.3594C45.7031 47.2705 45.7178 47.4756 45.9961 47.7539C46.2744 48.0322 46.4795 48.0469 50.3906 48.0469C54.3018 48.0469 54.5068 48.0322 54.7852 47.7539C55.0635 47.4756 55.0781 47.2705 55.0781 43.3594C55.0781 39.4482 55.0635 39.2432 54.7852 38.9648C54.5068 38.6865 54.3018 38.6719 50.3906 38.6719C46.4795 38.6719 46.2744 38.6865 45.9961 38.9648ZM52.7344 43.3594V45.7031H50.3906H48.0469V43.3594V41.0156H50.3906H52.7344V43.3594Z" fill="#F4F6FA"/>
<path d="M18.7207 42.2021L18.6768 43.4033L18.0615 43.5791C16.626 44.0039 15.2783 45.2051 14.5312 46.7285C14.165 47.4609 14.1357 47.6807 14.1357 49.2188C14.1357 50.7861 14.165 50.9619 14.5605 51.7822C15.4834 53.6572 17.1826 54.8145 19.3652 55.0928C20.9912 55.2832 21.46 55.459 22.1631 56.0889C22.9248 56.7773 23.291 57.583 23.291 58.5938C23.291 61.6406 19.5703 63.1201 17.4756 60.9229C16.8604 60.2783 16.582 59.5898 16.4648 58.3887L16.3623 57.4219H15.1904H14.0332L14.0918 58.8574C14.1357 60.0439 14.209 60.4248 14.5312 61.0986C15.2783 62.6074 16.626 63.8086 18.0615 64.2334L18.6768 64.4092L18.7207 65.6104L18.7646 66.7969H19.9219H21.0791L21.123 65.6104L21.167 64.4092L21.7822 64.2334C23.2178 63.8086 24.5654 62.6074 25.3125 61.084C25.6787 60.3516 25.708 60.1318 25.708 58.5938C25.708 57.0264 25.6787 56.8506 25.2832 56.0303C25.0342 55.5469 24.5068 54.8145 24.1113 54.4043C23.1006 53.4082 22.0459 52.9248 20.5078 52.7344C18.8525 52.5293 18.3838 52.3682 17.6807 51.7236C15.3809 49.6582 16.8164 45.835 19.8779 45.8496C20.8887 45.8496 21.709 46.2012 22.3682 46.8896C22.9834 47.5342 23.2617 48.2227 23.3789 49.4238L23.4814 50.3906H24.6533H25.8105L25.752 48.9551C25.708 47.7979 25.6201 47.3877 25.2979 46.7285C24.5801 45.2197 23.2178 44.0039 21.7822 43.5791L21.167 43.4033L21.123 42.2021L21.0791 41.0156H19.9219H18.7646L18.7207 42.2021Z" fill="#F4F6FA"/>
<path d="M37.3242 52.6465L36.1816 52.7783V53.9355V55.0781H37.4268H38.6719V53.9355C38.6719 53.3203 38.6133 52.7344 38.5547 52.6611C38.4961 52.5586 38.0566 52.5586 37.3242 52.6465Z" fill="#F4F6FA"/>
</svg>
