<svg width="75" height="75" viewBox="0 0 75 75" fill="none" xmlns="http://www.w3.org/2000/svg">
<path d="M36.2549 2.5488C32.5488 3.23727 28.9746 5.06833 26.3672 7.64645C25.1074 8.86228 23.833 10.5029 23.9648 10.7226C24.0234 10.8252 24.0234 10.8691 23.9502 10.8105C23.8184 10.6933 23.1445 11.6308 23.1445 11.9384C23.1445 12.0556 23.0713 12.1875 22.998 12.2314C22.8516 12.3193 22.3682 13.2715 22.3389 13.5498C22.3242 13.623 22.207 13.9306 22.0898 14.209C21.5186 15.4687 21.3721 15.8349 21.167 16.7871C21.0352 17.3291 20.9619 17.9004 20.9912 18.0468C21.0352 18.1933 21.0059 18.3398 20.9473 18.3838C20.874 18.4277 20.8301 18.706 20.8301 19.0136C20.8447 19.3066 20.8008 19.6582 20.7422 19.79C20.6836 19.9218 20.6689 20.3613 20.6982 20.7715C20.7715 21.6943 21.1963 22.1924 21.9727 22.2509C22.4121 22.2802 22.5293 22.2217 22.7783 21.7968C22.9395 21.5332 23.0713 21.0205 23.0859 20.6543C23.1006 20.2881 23.1592 19.5996 23.2178 19.1162C23.2764 18.6328 23.335 18.0908 23.3496 17.915C23.3643 17.7539 23.4229 17.6367 23.4814 17.6806C23.5547 17.7246 23.5986 17.6367 23.5693 17.4902C23.5547 17.3291 23.5693 17.1093 23.6133 16.9922C23.6572 16.875 23.8037 16.4355 23.9502 16.04C24.2139 15.249 24.9609 13.5351 25.1953 13.1836C25.2686 13.0664 25.4443 12.7588 25.5762 12.5244C25.708 12.2754 25.957 11.9092 26.1328 11.7041C26.3086 11.499 26.543 11.1767 26.6602 10.9863C27.1143 10.3125 29.2529 8.32028 30.2197 7.6611C32.2119 6.34274 34.6582 5.34665 36.8848 4.96579L37.9541 4.79001L37.9102 3.60349C37.8662 2.22653 37.8955 2.25583 36.2549 2.5488Z" fill="#F4F6FA"/>
<path d="M36.9435 11.294C33.0177 13.3301 32.549 18.5889 36.0646 21.1817C36.548 21.5332 37.0021 21.7969 37.0607 21.7529C37.1339 21.709 37.2072 21.7383 37.2365 21.8115C37.2511 21.8848 37.4122 21.9727 37.5734 22.002C37.837 22.0459 37.8663 21.958 37.9103 20.8154L37.9542 19.5996L37.339 19.0723C36.5919 18.4277 36.1818 17.5049 36.1818 16.4795C36.1818 15.4688 36.4601 14.8389 37.2804 14.0332L37.9542 13.3594L37.9103 12.0996L37.8663 10.8252L36.9435 11.294Z" fill="#F4F6FA"/>
<path d="M22.0167 24.4629C21.8409 24.5361 21.5919 24.7559 21.4601 24.9609C21.2404 25.2832 21.2404 25.4297 21.4015 26.1035C21.504 26.5283 21.6359 26.9385 21.7091 27.0117C21.7677 27.0996 21.8263 27.29 21.8263 27.4512C21.8263 27.627 21.9874 28.0811 22.1925 28.4766C22.3976 28.8721 22.5587 29.2822 22.5587 29.3994C22.5587 29.502 22.6173 29.5899 22.6905 29.5899C22.7638 29.5899 22.8663 29.751 22.9103 29.9561C22.9689 30.1611 23.0714 30.3223 23.1446 30.3223C23.2325 30.3223 23.2911 30.4102 23.2911 30.5127C23.2911 30.6299 23.4962 30.9961 23.7306 31.3184C23.9796 31.6553 24.17 31.9629 24.17 32.0068C24.17 32.0947 24.3312 32.3145 24.756 32.7832C24.8732 32.9297 25.2687 33.3838 25.6202 33.8233C26.3527 34.7022 28.506 36.4453 29.8097 37.2363C31.714 38.3789 33.9991 39.2285 36.1378 39.5801C37.9689 39.9024 37.8663 39.9609 37.9103 38.584C37.9396 37.7051 37.8956 37.3975 37.7638 37.3828C36.1525 37.207 33.9112 36.5332 32.2999 35.7422C28.8575 34.0283 26.4552 31.6113 24.756 28.125C24.5802 27.7588 24.3751 27.3486 24.3019 27.2168C24.2286 27.0703 24.17 26.8506 24.17 26.7334C24.17 26.6162 24.0968 26.5137 24.0089 26.5137C23.921 26.5137 23.8771 26.4111 23.9357 26.294C23.9796 26.1768 23.921 26.001 23.8185 25.8984C23.7159 25.7813 23.6427 25.6055 23.6573 25.4736C23.6866 25.3565 23.6134 25.0928 23.4962 24.8877C23.3937 24.6973 23.3058 24.5947 23.2911 24.6533C23.2911 24.7266 23.1886 24.668 23.0568 24.5508C22.8077 24.2871 22.5001 24.2725 22.0167 24.4629Z" fill="#F4F6FA"/>
<path d="M34.0285 24.8438C33.6769 25.1953 33.6622 25.2979 33.7208 26.2354C33.8527 28.0664 34.9952 29.7949 36.6945 30.7764C37.881 31.4649 37.9396 31.4209 37.9396 29.8828C37.9396 29.1065 37.881 28.5645 37.7931 28.5645C37.5441 28.5645 36.5626 27.3926 36.3868 26.8799C36.2843 26.6309 36.1818 26.1475 36.1378 25.7959C36.006 24.5508 34.8488 24.0235 34.0285 24.8438Z" fill="#F4F6FA"/>
<path d="M27.9346 43.7402C27.9053 43.7842 27.7441 43.8281 27.5977 43.8574C27.2607 43.9307 25.7373 44.4434 25.1221 44.6924C24.8877 44.7949 24.5947 44.8828 24.4922 44.9121C24.375 44.9268 24.1846 45 24.0527 45.0586C23.9209 45.1172 23.7305 45.1758 23.6426 45.1904C23.2031 45.293 21.1523 46.04 21.0352 46.1426C20.9619 46.2158 20.8154 46.2305 20.7129 46.1865C20.5957 46.1426 20.5078 46.1865 20.5078 46.2891C20.5078 46.3916 20.4199 46.4355 20.3027 46.3916C20.0098 46.2744 19.9219 46.5967 19.9219 47.9004V49.0576L20.5518 48.8379C20.8887 48.7207 21.2695 48.5889 21.3867 48.5303C21.5039 48.4863 21.709 48.4277 21.8408 48.3984C21.9727 48.3691 22.2656 48.2666 22.5 48.1787C22.7344 48.0762 22.998 47.9883 23.0713 47.959C23.1592 47.9443 24.3164 47.5635 25.6641 47.1094L28.1104 46.2744L28.8867 46.4941C29.3115 46.6113 30.0293 46.8164 30.4688 46.9482C30.9082 47.0801 31.4795 47.2412 31.7139 47.3145C31.9629 47.3877 33.2373 47.7686 34.5703 48.1641C35.9033 48.5596 37.0459 48.8379 37.1045 48.7793C37.1631 48.7207 37.207 48.1641 37.1777 47.5195L37.1338 46.377L35.5225 45.8789C34.6436 45.6152 33.4863 45.2637 32.959 45.1172C32.4316 44.9561 31.2451 44.6045 30.3223 44.3262C28.3594 43.7402 28.0225 43.667 27.9346 43.7402Z" fill="#F4F6FA"/>
<path d="M16.7578 46.2158C16.7578 46.9336 16.7725 47.2558 16.8018 46.9189C16.8311 46.582 16.8311 45.9814 16.8018 45.6006C16.7725 45.2197 16.7578 45.4834 16.7578 46.2158Z" fill="#F4F6FA"/>
<path d="M16.8018 50.0537C16.6553 50.1856 16.67 63.3984 16.8164 63.4717C16.875 63.5156 16.9043 60.542 16.875 56.8652C16.8457 51.5918 16.875 50.1709 17.0215 50.0684C17.1387 50.0098 17.1387 49.9512 17.0508 49.9512C16.9629 49.9512 16.8457 49.9951 16.8018 50.0537Z" fill="#F4F6FA"/>
<path d="M33.0615 57.2754C32.871 57.4365 32.6513 57.7295 32.6074 57.9346C32.5048 58.3594 32.8271 59.1064 33.2226 59.2969C33.5595 59.4727 35.6249 59.751 36.5185 59.751L37.207 59.7363V58.5791C37.207 57.2607 37.4121 57.4072 35.2148 57.1436C33.4863 56.9385 33.5009 56.9385 33.0615 57.2754Z" fill="#F4F6FA"/>
<path d="M19.9219 65.6982V66.9287L20.5518 67.1045C20.8887 67.1924 21.6357 67.3975 22.1924 67.5586C22.7637 67.7197 23.291 67.8662 23.3643 67.8955C23.4521 67.9102 23.6279 67.9687 23.7744 68.042C23.9062 68.1006 24.1113 68.1152 24.2285 68.0713C24.3311 68.0273 24.4922 68.0566 24.5508 68.1152C24.7119 68.2764 26.0889 68.6865 29.7363 69.6533C31.1426 70.0342 32.7686 70.459 33.3252 70.6055C36.0059 71.3379 36.5332 71.4551 36.6357 71.3965C36.6943 71.3672 36.7676 71.4258 36.8115 71.5137C36.8555 71.6602 36.9287 71.6602 37.0459 71.543C37.1631 71.4404 37.207 70.9717 37.1777 70.2393C37.1338 69.1553 37.1191 69.082 36.7676 68.9795C36.5625 68.9209 34.8926 68.4668 33.0322 67.9687C29.6338 67.0605 28.1543 66.665 26.001 66.0645C25.3564 65.8887 24.668 65.7129 24.4775 65.6689C24.2871 65.6396 24.0088 65.5518 23.877 65.4785C23.7305 65.4053 23.4814 65.376 23.3057 65.4053C23.1445 65.4346 22.998 65.4053 22.998 65.332C22.998 65.2588 22.749 65.1562 22.4561 65.1123C22.1484 65.0537 21.7529 64.9512 21.5771 64.8633C21.416 64.7754 21.1816 64.7607 21.0791 64.8193C20.9619 64.9072 20.9326 64.8779 21.0205 64.7461C21.1084 64.5996 21.0791 64.5703 20.9033 64.6436C20.7715 64.6875 20.625 64.6729 20.5811 64.5996C20.5225 64.5117 20.3613 64.4531 20.2002 64.4531C19.9512 64.4531 19.9219 64.5703 19.9219 65.6982Z" fill="#F4F6FA"/>
<path d="M16.7432 66.7969C16.7432 67.3242 16.7725 67.5293 16.8018 67.2656C16.8311 67.0166 16.8311 66.5772 16.8018 66.3135C16.7725 66.0645 16.7432 66.2695 16.7432 66.7969Z" fill="#F4F6FA"/>
<path d="M37.9102 3.57423L37.9541 4.77541L39.0967 4.74611C44.3115 4.64357 49.4092 7.14845 52.5439 11.3379C58.125 18.8086 56.3086 29.4434 48.5596 34.6289C45.7471 36.5039 43.0078 37.3535 39.5947 37.3975L37.9541 37.4268L37.9102 38.6279L37.8662 39.8145L39.624 39.8291C43.1689 39.8731 46.875 38.7744 49.7314 36.8701C50.7275 36.1963 52.749 34.5117 53.3643 33.8379C54.5508 32.5049 56.001 30.293 56.6602 28.7695C57.8613 25.9717 58.2129 24.2432 58.2129 21.0938C58.2129 19.3067 58.1543 18.3545 57.9492 17.4317C56.8799 12.4072 54.1113 8.29103 49.8779 5.41994C48.4717 4.46779 47.2705 3.88185 45.5127 3.29591C43.4619 2.60744 41.7334 2.32912 39.624 2.35841L37.8662 2.37306L37.9102 3.57423Z" fill="#F4F6FA"/>
<path d="M55.8105 2.63673C55.6201 2.82716 55.5176 3.12012 55.5176 3.48634C55.5176 3.96973 55.6641 4.20411 56.7041 5.34669C60.9375 10.0635 63.0469 15.8057 62.7979 21.9727C62.6367 26.1035 61.3477 30.1904 59.1357 33.6621L58.5205 34.6143L58.4473 34.0137C58.3301 32.9883 57.627 32.4902 56.8066 32.7979C56.1182 33.0615 56.001 33.4424 55.8105 36.1524C55.6641 38.4375 55.6641 38.7158 55.8838 39.0527C56.2207 39.5654 56.4697 39.6387 59.2236 39.8438C61.6113 40.0195 61.7139 40.0195 62.0801 39.7412C62.373 39.5215 62.4902 39.3018 62.5195 38.8477C62.5781 37.9834 62.0947 37.5 61.1279 37.4854C60.7471 37.4707 60.249 37.4268 60.0293 37.3682L59.6338 37.2803L60.293 36.4014C66.665 27.9346 67.002 15.835 61.1133 6.95802C60.0293 5.31739 59.5752 4.7461 58.2861 3.39845C57.3486 2.4463 57.2021 2.34376 56.6748 2.34376C56.2939 2.34376 56.001 2.4463 55.8105 2.63673Z" fill="#F4F6FA"/>
<path d="M38.8037 8.39355C38.4082 8.70117 38.2324 9.18457 38.2324 10.0195C38.2324 10.4736 38.1738 10.8398 38.1006 10.8398C38.0273 10.8398 37.9395 11.4551 37.9102 12.2168L37.8662 13.5938L38.2324 13.4033C38.4521 13.2861 39.0088 13.2129 39.5508 13.2275C41.3232 13.2715 42.4805 14.3408 42.7734 16.2012C42.9346 17.1973 43.3887 17.7246 44.1064 17.7246C44.8096 17.7246 45.2637 17.1533 45.2637 16.2598C45.2637 14.209 43.9453 12.2314 41.9531 11.2646C41.4551 11.0303 40.9717 10.8398 40.8838 10.8398C40.7812 10.8398 40.7227 10.4883 40.7227 9.90234C40.7227 8.70117 40.3857 8.20312 39.5801 8.20312C39.2871 8.20312 38.9355 8.29102 38.8037 8.39355Z" fill="#F4F6FA"/>
<path d="M37.8662 20.7129V22.1045L38.3789 22.1777C38.6572 22.2217 39.2725 22.2949 39.7266 22.3389C41.4551 22.5293 42.7588 23.9502 42.7734 25.6494C42.7734 26.7773 42.2021 27.8906 41.3086 28.4912C40.7227 28.8867 40.5176 28.9307 39.4482 28.96C38.7744 28.96 38.2324 28.916 38.2324 28.8428C38.2324 28.7695 38.1738 28.7109 38.1006 28.7109C38.0273 28.7109 37.9395 29.3115 37.9102 30.0293C37.8809 31.0107 37.9102 31.3477 38.0566 31.3477C38.1738 31.3477 38.2324 31.6113 38.2324 32.1973C38.2324 33.4277 38.6426 33.9844 39.5801 33.9844C40.3857 33.9844 40.7227 33.4863 40.7227 32.2852V31.377L41.2793 31.1865C43.6816 30.4102 45.2637 28.2422 45.2637 25.7227C45.2637 23.3936 43.916 21.2695 41.8506 20.3613C41.2061 20.083 38.8477 19.7021 38.7012 19.8486C38.6572 19.8926 38.54 19.8486 38.4229 19.7607C38.3203 19.6729 38.2324 19.6436 38.2324 19.7168C38.2324 19.7754 38.1445 19.7168 38.0566 19.585C37.8955 19.3799 37.8662 19.5703 37.8662 20.7129Z" fill="#F4F6FA"/>
<path d="M37.1337 47.6074V48.9111L38.3788 49.292C40.4296 49.9072 41.704 50.625 42.5097 51.6211C43.1982 52.4854 43.7987 53.877 43.7987 54.6533C43.7987 55.7227 40.0634 57.3193 37.5732 57.3047C37.1777 57.3047 36.9286 57.334 37.0312 57.3779C37.1484 57.4219 37.2069 57.8027 37.2069 58.5791V59.707L37.7489 59.7363C39.9023 59.8828 43.579 58.5645 45.2782 57.0264C45.7323 56.6162 46.2743 56.3965 48.5009 55.7373C64.6874 50.9326 65.2441 50.7715 66.2841 50.7715C67.8808 50.7568 69.0673 51.5039 69.7704 52.9395C70.2831 53.9941 70.3271 55.4004 69.8437 56.3818C69.1991 57.7295 68.9355 57.876 62.2558 60.8496C53.1298 64.9219 53.6278 64.6729 53.4667 65.1123C53.247 65.6982 53.2909 66.0059 53.6718 66.4453C53.9208 66.7529 54.1405 66.8555 54.5068 66.8555C54.829 66.8408 57.4218 65.7715 61.8163 63.7939C65.5663 62.124 68.9501 60.6006 69.3456 60.3955C70.3857 59.8682 71.4989 58.6816 72.0849 57.4951C72.5683 56.499 72.5829 56.4111 72.5829 54.7119C72.5829 53.0127 72.5683 52.9248 72.0849 51.9287C70.8984 49.5117 68.247 47.9736 65.7128 48.2373C65.288 48.2812 61.6845 49.2773 57.7001 50.4346C46.9628 53.5986 46.3915 53.7598 46.3036 53.6719C46.2597 53.6426 46.1132 53.2471 45.9814 52.793C45.4247 50.9912 43.872 49.0576 42.246 48.1348C41.3818 47.6514 38.9794 46.8164 37.8661 46.626C37.6318 46.582 37.3681 46.4941 37.2802 46.4355C37.1777 46.3623 37.1337 46.7578 37.1337 47.6074Z" fill="#F4F6FA"/>
<path d="M49.7314 66.4307C49.4971 66.5479 48.9258 66.7969 48.4863 67.002C48.0469 67.1924 46.2598 67.9834 44.5312 68.7598L41.3965 70.166L39.917 69.7998C39.1113 69.5947 38.1592 69.3457 37.793 69.2285L37.1338 69.0234V70.3272C37.1338 71.0449 37.1484 71.6309 37.1631 71.6309C37.1777 71.6309 38.0566 71.8652 39.1113 72.1436C41.3379 72.7442 41.7334 72.7588 42.627 72.3486C42.9932 72.1729 45.0732 71.25 47.2412 70.2832C49.4238 69.3311 51.3135 68.4082 51.46 68.2324C51.7529 67.8955 51.7822 67.1192 51.5186 66.7822C51.0791 66.2109 50.4492 66.0938 49.7314 66.4307Z" fill="#F4F6FA"/>
<path d="M3.09082 43.8135C2.3291 44.1211 2.3584 43.6084 2.34375 56.3379V68.2178L2.68066 68.5254C3.01758 68.833 3.12012 68.8477 6.63574 68.8477H10.2539V67.6758V66.5039H7.4707H4.6875V56.3232V46.1426H7.4707H10.2539V45V43.8428L8.83301 43.7549C6.75293 43.6084 3.50098 43.6523 3.09082 43.8135Z" fill="#F4F6FA"/>
<path d="M7.42679 48.8232C7.04593 49.4238 7.28031 50.5225 7.80765 50.5371C7.86625 50.5371 7.91019 50.0684 7.91019 49.5117C7.91019 48.4277 7.793 48.2666 7.42679 48.8232Z" fill="#F4F6FA"/>
<path d="M9.27243 43.7549L10.2539 43.8135V44.9707V46.1426H12.3047H14.3554V56.3232V66.5039H12.3047H10.2539V67.6758V68.8477H13.0371C15.6884 68.8477 16.6699 68.7158 16.4648 68.3936C16.4209 68.3203 16.4648 68.2617 16.5381 68.2617C16.6259 68.2617 16.6845 68.2178 16.6845 68.1592C16.6699 68.0859 16.6699 67.5732 16.6845 66.9873L16.6992 65.9326L17.2705 66.1377C17.5927 66.2402 18.0615 66.3721 18.3398 66.416C18.6035 66.46 19.0722 66.5918 19.3652 66.709L19.9072 66.9434L19.9511 65.6396C19.9951 64.3359 19.9951 64.3213 19.6289 64.2627C19.4238 64.2188 19.1308 64.1455 18.9697 64.1016C18.8086 64.0576 18.4424 63.9697 18.164 63.8965C17.8711 63.8232 17.4756 63.6768 17.2851 63.5742C17.08 63.4717 16.8896 63.3838 16.8457 63.3984C16.8017 63.4131 16.7724 60.4102 16.7724 56.7334V50.0391L17.2412 49.9365C17.5049 49.8926 17.8271 49.7607 17.9443 49.6582C18.0615 49.5557 18.164 49.5117 18.164 49.5703C18.164 49.6143 18.3984 49.5703 18.6767 49.4531C18.9697 49.3213 19.2041 49.2334 19.2334 49.248C19.248 49.248 19.4091 49.2188 19.5849 49.1602C19.8779 49.0723 19.9072 48.9404 19.9511 47.7539C19.9951 46.4941 19.9804 46.4355 19.7021 46.5234C19.541 46.582 19.3799 46.6699 19.3359 46.7285C19.292 46.7871 19.1455 46.8164 19.0136 46.7871C18.8672 46.7725 18.75 46.8164 18.75 46.9043C18.75 46.9922 18.6621 47.0215 18.5449 46.9775C18.4277 46.9336 18.3105 46.9482 18.2812 47.0215C18.2519 47.0947 18.0761 47.1826 17.8711 47.2266C17.666 47.2705 17.3291 47.3584 17.1093 47.4023L16.6992 47.4902V45.9521C16.6992 44.5605 16.6699 44.3701 16.3916 44.1211C15.9375 43.6963 15.498 43.6523 11.7334 43.6816C9.82907 43.6963 8.71579 43.7256 9.27243 43.7549Z" fill="#F4F6FA"/>
<path d="M7.9834 48.545C7.85156 48.9405 7.85156 50.6836 7.9834 50.7422C8.07129 50.7715 8.80371 50.8008 9.62402 50.8155C11.0889 50.8448 11.1475 50.8301 11.499 50.4492C12.1143 49.7754 11.8945 48.7647 11.0449 48.4864C10.4297 48.2813 8.05664 48.3252 7.9834 48.545Z" fill="#F4F6FA"/>
</svg>
