<svg width="75" height="75" viewBox="0 0 75 75" fill="none" xmlns="http://www.w3.org/2000/svg">
<g clip-path="url(#clip0_4502_7277)">
<path d="M30.6006 1.01074C24.8438 2.27051 20.3174 6.87012 19.1162 12.6709C18.6182 15.1172 18.8965 18.7207 19.7607 20.918C20.8301 23.5986 22.6611 26.0449 24.7852 27.627L25.6348 28.2422L24.6387 28.5498C24.082 28.7109 23.5107 28.9893 23.3643 29.1504C22.9541 29.6045 22.998 30.4395 23.4375 30.791C23.8623 31.1426 24.2725 31.1133 26.25 30.5566C28.623 29.8975 29.9707 29.707 32.915 29.6338C36.5625 29.5312 39.1699 29.8535 42.1729 30.7617C42.6855 30.9229 43.2568 31.0547 43.4619 31.0547C43.9453 31.0547 44.5312 30.4395 44.5312 29.9121C44.5312 29.2676 44.1357 28.9307 43.0225 28.5645C42.4658 28.3887 42.0703 28.1982 42.1436 28.1396C42.2021 28.0811 42.7441 27.6562 43.3301 27.1875C44.2969 26.3965 45.4248 25.1953 46.0107 24.3164C46.2451 23.9648 46.2598 23.9648 47.1826 24.1553C47.6953 24.2578 48.1348 24.3604 48.1494 24.375C48.1787 24.4043 48.1201 24.7998 48.0176 25.2832C47.7686 26.5723 47.8125 29.3408 48.1055 30.4688C48.9258 33.6768 51.3867 36.0205 54.6387 36.709C56.1182 37.0166 58.1982 36.9141 59.3994 36.46C60.5273 36.0352 61.582 34.9951 62.2412 33.6328L62.7246 32.6074L63.0176 32.9736C64.1016 34.3213 65.2295 36.3721 65.9326 38.2764C66.6211 40.1514 67.1045 40.5615 69.6387 41.3965C72.8027 42.4365 72.8467 42.5244 72.7734 46.6406C72.7148 50.3906 72.9053 50.1562 68.6572 51.5039C67.2363 51.958 65.8447 52.4707 65.5811 52.6465C65.332 52.8223 64.6582 53.6572 64.0869 54.4922C62.2998 57.2021 59.5752 59.6631 56.3379 61.5234C55.708 61.8896 55.0488 62.3584 54.9023 62.5488C54.7266 62.7979 54.3896 64.248 53.833 67.1631C53.3936 69.4922 53.0273 71.4551 53.0273 71.5137C53.0273 71.5723 52.9248 71.7188 52.793 71.8359C52.6025 72.0264 52.1484 72.0703 50.0391 72.0703C48.252 72.0703 47.4463 72.0117 47.2852 71.8945C47.124 71.7627 46.875 70.8545 46.5234 69.0674C46.04 66.5625 45.9961 66.416 45.542 66.0059C45.0732 65.5957 45.0439 65.5811 43.8135 65.6689C43.125 65.7275 41.792 65.8301 40.8691 65.9326C39.7412 66.0352 38.1445 66.0645 36.0352 65.9912C31.0107 65.8154 31.4355 65.7861 30.9229 66.2695C30.4541 66.7236 30.4102 66.8555 29.8242 69.9902C29.6338 70.9717 29.4287 71.8359 29.3848 71.8945C29.3262 71.9531 28.1104 72.0117 26.6895 72.041C24.6973 72.0703 24.0381 72.041 23.833 71.8945C23.6279 71.7334 23.3789 70.752 22.7637 67.5293C22.3096 65.2295 21.8555 63.208 21.7529 63.0322C21.6357 62.8564 20.9619 62.373 20.2734 61.9629C15.2197 59.0039 12.1875 54.8145 10.9131 49.0723C10.5469 47.373 10.459 43.0957 10.752 41.0742C11.6309 35.127 14.707 30.4395 19.8047 27.3047C20.1855 27.0703 20.5664 26.7041 20.6543 26.499C20.9912 25.708 20.4492 24.9023 19.5703 24.9023C19.0576 24.9023 16.8311 26.3525 15.3223 27.6562C11.9824 30.5566 9.53613 34.834 8.68652 39.2578C8.55469 39.9902 8.39355 40.5762 8.33496 40.5762C8.29102 40.5762 8.20312 40.1807 8.15918 39.6826C8.0127 38.1006 6.94336 36.4453 5.63965 35.8154C5.31738 35.6689 4.6875 35.5078 4.2334 35.4785C3.25195 35.4053 2.49023 35.7422 1.78711 36.5479C-0.249023 38.8623 0.834961 41.2061 4.42383 42.1875L5.30273 42.4219L4.62891 43.0957C3.7793 43.9453 2.65137 44.5166 1.46484 44.6777C0.322266 44.8389 0 45.1172 0 45.9375C0 47.0947 0.966797 47.4316 2.85645 46.9482C3.3252 46.8164 4.04297 46.5381 4.45312 46.3184C5.36133 45.8203 6.85547 44.3701 7.39746 43.4619C8.07129 42.29 8.15918 42.4658 8.24707 45.4541C8.33496 48.3252 8.61328 50.083 9.31641 52.207C10.8545 56.8506 13.8867 60.7178 18.0908 63.3984C18.7354 63.8086 19.3799 64.2334 19.5264 64.3359C19.7168 64.4824 19.9658 65.4785 20.5664 68.584C21.0059 70.8105 21.4307 72.7441 21.5039 72.9053C21.7383 73.3301 22.4414 73.9453 22.8955 74.1064C23.4521 74.3262 29.5752 74.3262 30.1318 74.1064C30.6299 73.9307 31.3037 73.3008 31.5674 72.8027C31.6699 72.5977 31.9336 71.4697 32.1533 70.2832L32.5635 68.1152L32.9443 68.2324C33.5889 68.4082 40.9863 68.335 42.4658 68.1445C43.2129 68.042 43.8574 67.9834 43.9014 68.0127C43.9307 68.042 44.1504 69.0674 44.3848 70.2832C44.8535 72.7588 45.0293 73.1982 45.8057 73.7842L46.333 74.1943L49.8193 74.2383C55.0781 74.3115 54.8291 74.5459 56.0156 68.2764C56.4551 65.918 56.8359 63.9697 56.8652 63.9551C56.8945 63.9404 57.4072 63.6328 58.0078 63.2812C61.1133 61.4941 64.0576 58.7842 65.8594 56.1035L66.8848 54.5654L69.9902 53.54C73.4473 52.3975 73.96 52.0752 74.6484 50.6104C74.9854 49.9072 75 49.7607 75 46.2891C75 42.832 74.9854 42.6709 74.6484 41.9678C74.0479 40.6641 73.2861 40.1221 70.9277 39.3457C69.7852 38.9648 68.7451 38.5547 68.6279 38.4375C68.5107 38.3203 68.3057 37.8809 68.1592 37.4561C67.4414 35.3613 65.874 32.6514 64.3213 30.835C63.9111 30.3662 63.5742 29.8828 63.5742 29.7803C63.5742 29.6777 63.6768 28.9453 63.8232 28.1543C64.1602 26.1182 64.1602 22.2217 63.8232 20.9619C63.4863 19.7021 63.0762 19.1016 62.3584 18.7207C61.8311 18.457 61.582 18.4277 60.4248 18.501C58.4473 18.6182 54.7119 19.834 50.7861 21.665L49.4971 22.251L48.4863 22.0312L47.4756 21.7969L47.7686 21.0498C48.252 19.8486 48.6475 17.9004 48.6768 16.7285C48.7061 15.7617 48.6768 15.6299 48.3545 15.3662C48.1641 15.2197 47.8271 15.0879 47.5781 15.0879C47.0508 15.0879 46.4355 15.6738 46.4355 16.1572C46.4355 16.9775 45.9521 19.1455 45.542 20.2148C44.4141 23.1738 41.9092 25.8252 39.0527 27.0996C38.2617 27.4512 38.0566 27.4805 37.2803 27.3779C36.123 27.2314 31.6992 27.2314 30.3955 27.3779C29.5312 27.4658 29.2676 27.4512 28.7256 27.2021C26.1328 26.0596 23.7451 23.7744 22.4414 21.167C21.0059 18.2812 20.7861 14.8242 21.8408 11.6602C22.9102 8.4375 25.1221 5.90332 28.1982 4.37988C30.3662 3.31055 31.1279 3.14941 33.9111 3.14941C36.0791 3.16406 36.3574 3.19336 37.5 3.57422C40.4004 4.52637 42.8613 6.41602 44.3994 8.8623C45.3662 10.415 45.5127 10.5469 46.1426 10.5469C46.582 10.5469 46.7725 10.459 47.0068 10.166C47.417 9.63867 47.3877 9.3457 46.875 8.36426C45.0586 4.98047 41.8213 2.41699 37.8369 1.23047C36.0645 0.703125 32.5195 0.585938 30.6006 1.01074ZM61.5381 21.4893C61.8311 22.4854 61.7871 26.2061 61.4648 27.9785C60.9961 30.6006 60.1758 32.8564 59.3555 33.7354C58.3154 34.834 55.3125 34.834 53.2764 33.7354C52.2656 33.1787 51.0645 31.8311 50.6982 30.8203C50.1855 29.458 50.0391 28.0518 50.2441 26.3672C50.4639 24.5947 50.6543 24.3018 51.9873 23.7012C53.7744 22.8955 56.4551 21.8555 57.9346 21.416C59.7656 20.8594 59.8389 20.8447 60.6592 20.8154L61.333 20.8008L61.5381 21.4893ZM5.03906 38.3057C5.50781 38.7744 6.00586 39.8877 5.83008 40.0635C5.69824 40.1953 3.86719 39.5654 3.45703 39.2432C2.98828 38.877 2.98828 38.8037 3.45703 38.2471C3.95508 37.6465 4.40918 37.6611 5.03906 38.3057Z" fill="#F4F6FA"/>
<path d="M33.9404 7.80762C33.8086 7.91016 33.6914 8.14453 33.6621 8.34961C33.6328 8.64258 33.5156 8.73047 33.0029 8.81836C31.7578 9.02344 30.6885 9.8291 30.2637 10.8691C29.9707 11.5723 29.9707 13.0371 30.2637 13.7402C30.3809 14.0332 30.6592 14.4727 30.8789 14.707C31.2598 15.1172 33.1201 16.1133 33.501 16.1133C33.6475 16.1133 33.6914 16.626 33.6914 18.3252V20.5371L33.2227 20.4492C32.7539 20.3613 31.875 19.8779 31.1719 19.3213C30.6445 18.8818 30.1025 19.043 29.7803 19.7021C29.5605 20.1709 29.5605 20.2588 29.7803 20.7129C30.2051 21.6211 31.4063 22.2949 32.959 22.5C33.6328 22.5879 33.6768 22.6172 33.7207 23.0566C33.7646 23.4668 33.8086 23.5107 34.2773 23.5107C34.7461 23.5107 34.79 23.4668 34.8633 22.998C34.9219 22.5586 34.9951 22.4854 35.4932 22.3828C36.7383 22.1191 37.7783 21.2109 38.1738 20.0391C38.4668 19.1455 38.3936 17.2998 38.042 16.6113C37.6611 15.8789 36.7676 15.1172 35.7861 14.6924L34.8633 14.2969V12.4219C34.8633 11.0156 34.9072 10.5469 35.0537 10.5469C35.1416 10.5469 35.625 10.7227 36.1084 10.9131C37.2217 11.3672 37.4121 11.3672 37.7783 10.8984C38.6133 9.84375 37.7637 8.99414 35.5518 8.70117C34.9658 8.61328 34.8779 8.55469 34.834 8.23242C34.7754 7.79297 34.2627 7.55859 33.9404 7.80762ZM33.6914 12.3193V13.9307L33.0908 13.5938C31.8896 12.9199 31.7432 11.5869 32.7832 10.9424C33.6182 10.4297 33.6914 10.5322 33.6914 12.3193ZM36.0498 17.6514C36.4893 18.3398 36.416 19.2334 35.8887 19.8193C35.6396 20.0977 35.3174 20.3613 35.1563 20.4053C34.8779 20.4785 34.8633 20.4053 34.8633 18.5742V16.6846L35.3174 16.9482C35.5811 17.0947 35.9033 17.4023 36.0498 17.6514Z" fill="#F4F6FA"/>
<path d="M56.1914 39.8584C55.5029 40.4004 55.7227 41.9824 56.6309 43.0371C57.4219 43.96 58.169 44.2969 59.3994 44.2969C60.5713 44.2969 61.2891 44.0039 62.0654 43.1836C62.6807 42.5537 62.9883 41.7773 62.9883 40.8838C62.9883 40.2686 62.9297 40.1074 62.6074 39.8584C62.3877 39.6826 62.0654 39.5508 61.8897 39.5508C61.3623 39.5508 60.8203 40.0781 60.7178 40.6934C60.5713 41.5283 60.044 42.041 59.3408 42.041C58.96 42.041 58.1543 41.3525 58.1543 41.0303C58.1543 39.8145 57.0703 39.1699 56.1914 39.8584Z" fill="#F4F6FA"/>
</g>
<defs>
<clipPath id="clip0_4502_7277">
<rect width="75" height="75" fill="white"/>
</clipPath>
</defs>
</svg>
