<svg width="75" height="75" viewBox="0 0 75 75" fill="none" xmlns="http://www.w3.org/2000/svg">
<g clip-path="url(#clip0_4507_7425)">
<path d="M36.4861 38.2334L36.4983 38.1951H25.6708H13.4756H12.0706L12.5308 36.8675L14.1142 32.3L15.6367 27.7325L15.8623 27.0559L16.5754 27.0488L28.8265 26.9269L28.8315 26.9268L40.3058 26.7547L44.2316 14.6309L44.2326 14.6277C45.3911 11.0914 46.4428 7.87515 47.205 5.54299C47.5861 4.37692 47.8947 3.43188 48.1081 2.77836L48.1306 2.70942C47.6519 2.57652 47.028 2.41508 46.352 2.25288L46.3429 2.2506C44.8483 1.87695 42.1173 1.54578 39.3773 1.36362C36.6245 1.18061 34.0292 1.15953 32.7782 1.35355C21.1271 3.19632 10.6872 10.6898 5.83977 20.7393L5.83656 20.7459C2.43496 27.6684 1.20478 34.5413 2.08827 40.9612L2.08905 40.9671C3.28271 50.0389 6.48743 56.7802 12.3527 62.6458C26.7683 77.0013 50.1997 76.5265 64.0219 61.5772L64.0271 61.5716C69.4939 55.7483 73.3903 46.5938 73.3903 40V38.2041L60.8672 38.3169L60.8627 38.317L48.0502 38.4902L44.8549 48.4755L41.4403 59.1462L41.2268 59.8134L40.5268 59.8407L35.8403 60.0232C35.8388 60.0233 35.8374 60.0234 35.8359 60.0234C34.5325 60.0854 33.3256 60.0861 32.4313 60.0382C31.9894 60.0145 31.5935 59.9775 31.2915 59.9224C31.1491 59.8964 30.9722 59.8569 30.8092 59.7888C30.7315 59.7564 30.5953 59.6927 30.4627 59.5765C30.3302 59.4602 30.0976 59.1943 30.0976 58.7805C30.0976 58.6447 30.1276 58.5117 30.1354 58.4773C30.1359 58.4752 30.1363 58.4735 30.1366 58.4722C30.1509 58.4069 30.17 58.3308 30.1914 58.2495C30.2346 58.0852 30.2963 57.8665 30.3729 57.6039C30.5267 57.0767 30.7477 56.3485 31.019 55.4736C31.5618 53.7228 32.3102 51.3707 33.1344 48.837C34.7933 43.7376 36.2947 39.0481 36.4647 38.3117L36.4738 38.2721L36.4861 38.2334Z" fill="#00205B" stroke="white" stroke-width="2"/>
<path d="M51.874 26.9305L51.8432 27.0487H62.1342H72.3245L71.3228 24.4443L71.32 24.4369L71.3173 24.4295C69.3677 19.1125 66.2967 14.7298 61.7012 10.4921C60.6148 9.49631 59.5761 8.59321 58.7904 7.9422C58.6323 7.81119 58.4856 7.69142 58.3519 7.58388C58.1735 8.02061 57.9557 8.58751 57.7067 9.26331C57.0723 10.9852 56.2536 13.3651 55.4027 15.9786C54.9474 17.3933 54.5004 18.783 54.0851 20.0743C52.9661 23.5537 52.0769 26.3184 51.874 26.9305Z" fill="#00205B" stroke="white" stroke-width="2"/>
</g>
<defs>
<clipPath id="clip0_4507_7425">
<rect width="75" height="74.3902" fill="white"/>
</clipPath>
</defs>
</svg>
