<svg width="75" height="75" viewBox="0 0 75 75" fill="none" xmlns="http://www.w3.org/2000/svg">
<path d="M24.3311 2.35835C23.3057 2.56342 22.4707 3.04682 21.6944 3.88178C20.8155 4.86323 20.5225 5.65424 20.4053 7.4853C20.2588 9.75581 20.5664 10.5468 21.5772 10.5468C22.5147 10.5468 22.6172 10.3417 22.7198 8.32026C22.8077 6.34272 22.9688 5.85932 23.7305 5.21479C23.9795 5.00971 24.4336 4.77534 24.7559 4.68745C25.1368 4.58491 29.2823 4.54096 37.3243 4.57026L49.3067 4.6142L49.9366 5.02436C51.1524 5.83002 51.1231 5.47846 51.1231 15.3808C51.1231 25.2832 51.1524 24.9316 49.9366 25.7373L49.3067 26.1474L37.3243 26.1914C29.2823 26.2207 25.1368 26.1767 24.7559 26.0742C24.0821 25.8837 23.3789 25.3417 23.0274 24.6972C22.8077 24.3017 22.7784 23.6132 22.7344 18.8671L22.6905 13.4912L22.3096 13.1835C21.8116 12.788 21.3428 12.8173 20.8448 13.2421L20.4346 13.5937V19.0722C20.4346 25.5761 20.4346 25.5908 21.8848 27.041C23.4375 28.5937 22.3682 28.4912 37.0606 28.4912H49.7315L50.7129 28.0078C51.7823 27.4804 52.5293 26.7333 53.0567 25.6494L53.3936 24.9755V15.3808V5.78608L53.0567 5.11225C52.5293 4.02827 51.7823 3.2812 50.7129 2.75385L49.7315 2.27045L37.3536 2.24116C30.542 2.24116 24.6827 2.2851 24.3311 2.35835Z" fill="#F4F6FA"/>
<path d="M32.6954 8.80375C31.9191 9.18461 31.421 9.82914 31.2013 10.6934C31.0988 11.1329 31.0548 12.8174 31.0841 15.7471C31.1281 19.878 31.1427 20.1709 31.4357 20.7276C32.0802 21.9727 33.7794 22.6026 35.0392 22.0752C35.8009 21.753 42.3341 17.9004 42.7443 17.5196C43.3009 17.0215 43.6525 16.2012 43.6525 15.3809C43.6525 14.5606 43.3009 13.7403 42.7443 13.2422C42.3634 12.876 35.7863 8.99418 35.0538 8.70121C34.3654 8.40824 33.4132 8.45219 32.6954 8.80375ZM37.7198 12.9346C40.796 14.751 41.2355 15.0586 41.2355 15.3809C41.2355 15.6885 40.7814 15.9961 37.7198 17.8272C35.7863 18.9698 34.131 19.9073 34.0284 19.9073C33.9406 19.9219 33.7501 19.8194 33.6329 19.6875C33.4279 19.4971 33.3986 18.8965 33.3986 15.3809C33.3986 11.8653 33.4279 11.2647 33.6329 11.0743C33.7501 10.9424 33.9406 10.8399 34.0284 10.8545C34.131 10.8545 35.7863 11.792 37.7198 12.9346Z" fill="#F4F6FA"/>
<path d="M9.08203 15.8203C6.43066 16.1865 4.18945 18.0469 3.20801 20.6689L2.85645 21.6064L2.8125 41.6309L2.76855 61.6699H1.77246C0.981445 61.6699 0.688477 61.7285 0.380859 61.9775C0 62.2705 0 62.2852 0 64.3799C0 66.6797 0.219727 67.7051 0.981445 69.0381C2.06543 70.8984 4.30664 72.3779 6.44531 72.6563C7.9248 72.8467 67.0752 72.8467 68.5547 72.6563C70.6934 72.3779 72.9346 70.8984 74.0186 69.0381C74.7803 67.7051 75 66.6797 75 64.3799C75 62.2852 75 62.2705 74.6191 61.9775C74.3115 61.7285 74.0186 61.6699 73.2275 61.6699H72.2168V42.4365C72.2168 31.6113 72.1436 22.7637 72.0703 22.1777C71.7041 19.3066 69.917 17.0801 67.2217 16.1133C66.3428 15.791 66.0205 15.7764 61.6113 15.7031C56.5283 15.6299 55.9863 15.6885 55.6934 16.333C55.4443 16.875 55.4736 17.1973 55.8105 17.6221L56.1035 18.0029L60.9814 18.0469C66.2549 18.1055 66.3721 18.1201 67.6611 18.9844C68.3643 19.4385 69.1846 20.4932 69.5508 21.4014C69.7852 22.002 69.7998 23.4229 69.8438 41.8506L69.8877 61.6699H57.4219C43.3447 61.6699 44.1943 61.5967 43.2715 62.8271C42.9785 63.1934 42.6123 63.5742 42.4365 63.6768C41.9824 63.9258 32.8711 63.9258 32.417 63.6768C32.2412 63.5742 31.875 63.1934 31.582 62.8271C30.6592 61.5967 31.5088 61.6699 17.5049 61.6699H5.12695L5.15625 41.8506C5.2002 23.5693 5.21484 22.002 5.44922 21.416C5.84473 20.4492 6.5332 19.541 7.25098 19.043C8.54004 18.1494 8.75977 18.1201 13.5205 18.0322C17.6367 17.9443 17.915 17.9297 18.1055 17.666C18.3984 17.2559 18.3545 16.4941 18.0322 16.0986L17.7539 15.7471L13.8135 15.7324C11.6602 15.7178 9.52148 15.7617 9.08203 15.8203ZM29.9854 64.6582C30.2344 65.0098 30.7617 65.4932 31.1572 65.7275L31.8604 66.1377H37.4268H42.9932L43.6963 65.7275C44.0918 65.4932 44.6191 65.0098 44.8682 64.6582L45.3223 64.0137H58.9893H72.6562V65.1123C72.6562 66.6943 72.2607 67.6611 71.1328 68.7891C70.5029 69.4189 69.9756 69.7852 69.3604 70.0342L68.4814 70.3857H37.5H6.51855L5.63965 70.0342C5.02441 69.7852 4.49707 69.4189 3.86719 68.7891C2.73926 67.6611 2.34375 66.6943 2.34375 65.1123V64.0137H15.9375H29.5312L29.9854 64.6582Z" fill="#F4F6FA"/>
<path d="M9.58015 20.4931C8.83308 20.6836 8.24714 21.1084 7.88093 21.7383L7.54402 22.3388L7.50007 35.0097C7.47078 41.9824 7.50007 47.959 7.54402 48.3105C7.60261 48.6621 7.76375 49.0722 7.92488 49.2334C8.39363 49.7021 9.47761 49.5556 9.75593 48.9697C9.82918 48.8232 9.91707 42.876 9.96101 35.7422L10.0343 22.7783L13.96 22.7051C17.6368 22.6318 17.9151 22.6172 18.1055 22.3535C18.3985 21.9433 18.3546 21.1816 18.0323 20.7861L17.754 20.4345L13.8868 20.4053C11.7774 20.3906 9.82918 20.4345 9.58015 20.4931Z" fill="#F4F6FA"/>
<path d="M56.4405 20.4639C56.0304 20.5518 55.5177 21.1816 55.5177 21.6064C55.5177 21.7822 55.6495 22.1045 55.8253 22.3242L56.1183 22.7051L60.5421 22.7344L64.9659 22.7783L65.0099 39.873L65.0392 56.9824H57.2023H49.3653V54.9609C49.3653 50.1855 48.7648 48.3984 46.3331 45.8496L45.337 44.7949L45.8058 43.8281C46.6261 42.1289 46.5968 41.2354 45.6739 40.8545C45.3224 40.708 45.1612 40.7227 44.7657 40.9131C44.3849 41.0889 44.2237 41.3086 43.9454 42.0703C43.506 43.2861 43.0519 43.9893 42.1437 44.8535C40.4884 46.4502 38.0421 47.0801 35.8155 46.5088C32.4317 45.6152 30.1612 42.1729 30.7618 38.8184C31.3624 35.4639 34.1603 33.1055 37.5001 33.1055C40.2394 33.1055 42.5099 34.5703 43.7257 37.1484C44.253 38.2471 44.3995 38.3789 45.1905 38.3789C45.7472 38.3789 46.2892 37.8369 46.2892 37.2803C46.2892 37.0898 46.0108 36.4014 45.6739 35.7275C44.5167 33.4131 42.2901 31.626 39.7706 30.9814C38.6573 30.7031 36.3429 30.7031 35.2296 30.9814C32.1388 31.7578 29.546 34.292 28.6232 37.4268C28.3009 38.5107 28.2716 40.7373 28.5499 41.9971C28.6525 42.4951 28.9601 43.3301 29.2091 43.8428L29.6632 44.7949L28.6671 45.8496C26.2355 48.3984 25.6349 50.1855 25.6349 54.9609V56.9824H17.8126H9.99034L9.93175 54.7705L9.8878 52.5586L9.47765 52.207C8.9503 51.7676 8.48155 51.7676 7.95421 52.207L7.54405 52.5586L7.50011 55.0195C7.44151 57.832 7.5294 58.6523 7.92491 59.0479C8.20323 59.3262 8.75987 59.3262 37.5001 59.3262C66.2403 59.3262 66.797 59.3262 67.0753 59.0479C67.2364 58.8867 67.3976 58.4766 67.4562 58.125C67.5001 57.7734 67.5294 49.585 67.5001 39.917C67.4562 21.1084 67.5001 22.0898 66.7384 21.2695C66.006 20.4492 65.9034 20.4346 61.1573 20.4199C58.7403 20.4053 56.6163 20.4199 56.4405 20.4639ZM31.9483 47.2266C34.0284 48.8086 36.8263 49.4092 39.4776 48.8525C40.6495 48.6035 42.3048 47.8564 43.1251 47.1826C43.4327 46.9336 43.7403 46.7285 43.8136 46.7285C44.0919 46.7285 45.7618 48.8086 46.2306 49.7314C46.8312 50.9619 47.0069 52.1191 47.0216 54.9609V56.9824H37.5001H27.9786V54.9609C27.9933 52.1631 28.1691 50.9766 28.7696 49.7314C29.2091 48.8086 30.8937 46.7285 31.1866 46.7285C31.2599 46.7285 31.5968 46.9482 31.9483 47.2266Z" fill="#F4F6FA"/>
</svg>
