<svg width="148" height="58" viewBox="0 0 148 58" fill="none" xmlns="http://www.w3.org/2000/svg"><path fill-rule="evenodd" clip-rule="evenodd" d="M44.506 6.914H30.787l-1.458 1.458v15.501l1.458 1.459h13.72l1.457-1.459V8.372l-1.458-1.458zM40.617 20.74h-5.941v-9.344h5.941v9.344zM147.832 8.318l-1.459-1.458h-13.719l-1.458 1.458v15.501l1.458 1.459h13.719l1.459-1.459V8.318zm-5.348 12.423h-5.941v-9.344h5.941v9.344zM125.903 0l1.458 1.458v22.415l-1.458 1.459h-13.72l-1.458-1.459V8.372l1.458-1.458h9.183l-2.485 4.483h-2.863v9.344h5.942V4.483h-8.804L110.671 0h15.232zM64.815 6.914l1.458 1.458V19.39l-1.458 1.459h-9.182l2.484-4.483h2.863v-4.861h-5.941v13.88H49.69V8.426l-1.458-1.457h16.582v-.054zM25.602 0l2.484 4.483h-2.808v20.795H19.93V11.397h-3.888v13.88h-5.348v-13.88H6.806v13.88H1.458V9.508L0 6.86h19.877V4.483H2.538L.054 0h25.548zm60.926 6.914v18.364H81.18V11.397h-5.94v13.88h-5.348V8.318L68.433 6.86h18.095v.054zm19.444 0l1.458 1.458v8.534l-1.458 1.458H96.79l2.484-4.483h2.863v-2.43h-5.941v9.398h11.234l-2.484 4.483H92.253l-1.458-1.459V8.372l-1.459-1.458h16.636z" fill="#F4F6FA"/><path fill="#C8102E" d="M18.178 34.634h113.325V58H18.178z"/><path d="M38.412 53.608c-1.558 0-2.789-.405-3.692-1.216-.904-.81-1.355-1.916-1.355-3.318v-6.822c0-1.387.451-2.485 1.355-3.295.903-.825 2.134-1.238 3.692-1.238 1.666 0 2.905.428 3.715 1.285.825.841 1.238 2.126 1.238 3.855v1.496h-3.13v-1.59c0-.763-.149-1.316-.445-1.658-.296-.359-.763-.538-1.402-.538-.623 0-1.098.164-1.425.491-.312.327-.467.81-.467 1.449v6.332c0 .623.155 1.098.467 1.425.327.327.802.49 1.425.49s1.083-.17 1.379-.513c.311-.343.467-.88.467-1.613v-1.495h3.131v1.425c0 3.365-1.65 5.047-4.953 5.047zm18.076-3.132v5.959H53.38v-3.108h-6.028v3.108H44.22v-5.959h1.191c.561-1.199.857-2.835.888-4.906l.094-7.57h8.739v12.476h1.355zm-7.29-4.673c-.016 1.776-.288 3.334-.818 4.673h3.622v-9.603h-2.734l-.07 4.93zm19.037-8.084c1.51-.016 2.718.39 3.621 1.215.92.81 1.379 1.9 1.379 3.27v6.94c0 1.371-.452 2.462-1.355 3.272-.904.794-2.119 1.192-3.645 1.192-1.496 0-2.672-.398-3.529-1.192-.856-.795-1.285-1.885-1.285-3.271v-2.057h-1.916v6.24h-3.13v-15.33h3.13v6.239h1.916v-2.033c0-1.386.429-2.477 1.285-3.271.857-.81 2.033-1.215 3.529-1.215zm1.869 4.696c0-.576-.164-1.028-.49-1.355-.312-.327-.756-.49-1.333-.49-.56 0-1.004.163-1.331.49-.312.327-.468.779-.468 1.355v6.543c0 .56.156 1.004.468 1.331.311.312.755.468 1.331.468.577 0 1.02-.156 1.332-.468.327-.327.491-.77.491-1.331v-6.543zM78.813 38v12.453h3.294V38h3.131v12.454h3.295V38h3.13v15.328h-15.98V38h3.13zm20.339 15.608c-1.543 0-2.765-.405-3.669-1.216-.903-.825-1.355-1.931-1.355-3.318v-6.822c0-1.387.452-2.485 1.355-3.295.904-.825 2.126-1.238 3.669-1.238 1.542 0 2.765.413 3.668 1.238.904.81 1.355 1.908 1.355 3.295v6.822c0 1.387-.451 2.493-1.355 3.318-.903.81-2.126 1.215-3.668 1.215zm0-2.851c.607 0 1.074-.164 1.402-.49.342-.328.514-.803.514-1.426v-6.332c0-.623-.164-1.099-.491-1.426-.327-.342-.802-.514-1.425-.514-.608 0-1.075.172-1.402.514-.328.328-.491.803-.491 1.426v6.332c0 .623.163 1.098.49 1.425.328.327.795.49 1.403.49zM111.599 38c1.542 0 2.718.389 3.528 1.167.81.764 1.215 1.885 1.215 3.365v.467c0 1.496-.405 2.625-1.215 3.388-.794.764-1.97 1.145-3.528 1.145h-1.846v5.795h-3.131V38h4.977zm-.234 6.682c.608 0 1.067-.133 1.379-.398.312-.264.467-.693.467-1.285v-.467c0-1.121-.615-1.682-1.846-1.682h-1.612v3.832h1.612z" fill="#F4F6FA"/></svg>